<?xml version="1.0" encoding="UTF-8"?>
<svg version="1.1" xmlns="http://www.w3.org/2000/svg" width="512" height="512">
<path d="M0 0 C2.88125994 1.33442396 5.21349954 2.84297506 7.65234375 4.87109375 C8.68367432 5.72441284 8.68367432 5.72441284 9.73583984 6.5949707 C10.4623877 7.20300537 11.18893555 7.81104004 11.9375 8.4375 C13.06986084 9.37758911 13.06986084 9.37758911 14.22509766 10.33666992 C19.32705223 14.57967146 24.39768214 18.85941171 29.45556641 23.15478516 C33.76340588 26.81053918 38.09791457 30.42985032 42.49609375 33.9765625 C44.11123383 35.2817771 45.70924576 36.60861773 47.28515625 37.9609375 C47.97480469 38.53070313 48.66445312 39.10046875 49.375 39.6875 C49.96023437 40.18636719 50.54546875 40.68523437 51.1484375 41.19921875 C53.05113413 42.24114583 53.05113413 42.24114583 55.40625 41.4296875 C58.43160293 39.76209839 60.62475886 37.82205834 63.125 35.4375 C66.73356545 32.05401242 70.39705267 28.79286054 74.25 25.6875 C78.77735568 22.03452632 83.18177522 18.26330741 87.5625 14.4375 C93.25862482 9.46665143 99.03407846 4.64640007 105 0 C108.14016458 1.37878688 110.12433803 2.93435079 112.43359375 5.45703125 C113.07627197 6.15127197 113.7189502 6.8455127 114.38110352 7.56079102 C115.05971436 8.30385498 115.7383252 9.04691895 116.4375 9.8125 C121.54854244 15.33471532 126.70303505 20.78062813 132.0625 26.0625 C135.28086345 29.2415508 138.45139362 32.41848309 141.375 35.875 C145.42361065 40.65602263 149.9380354 44.98787141 154.40771484 49.37060547 C157.55469581 52.47493775 160.58320856 55.61864293 163.46875 58.96875 C167.11066491 63.1923881 171.02034299 67.09658163 175 71 C179.61825953 75.52978713 184.0319728 80.12959484 188.25390625 85.03125 C191.18628435 88.33755551 194.34584132 91.40718115 197.5 94.5 C201.84580205 98.79952536 206.06068278 103.1033108 210 107.78125 C213.63072952 111.80909056 217.53721327 115.57538415 221.40820312 119.37109375 C224.55502478 122.47525776 227.58335991 125.61881865 230.46875 128.96875 C234.11066491 133.1923881 238.02034299 137.09658163 242 141 C246.61825953 145.52978713 251.0319728 150.12959484 255.25390625 155.03125 C258.18628229 158.33755319 261.34581889 161.40720629 264.5 164.5 C268.96710384 168.91922258 273.32686721 173.34119177 277.37109375 178.15625 C280.16312188 181.31653124 283.23408291 184.20094089 286.27734375 187.1171875 C288 189 288 189 288 191 C131.91 191 -24.18 191 -185 191 C-182.72926656 187.21544426 -181.19519558 184.95032077 -178.19042969 181.97924805 C-177.4324408 181.22463791 -176.6744519 180.47002777 -175.89349365 179.69255066 C-175.0778595 178.89037613 -174.26222534 178.0882016 -173.421875 177.26171875 C-172.57707581 176.42212112 -171.73227661 175.5825235 -170.86187744 174.71748352 C-168.16263069 172.03602158 -165.45680498 169.36133039 -162.75 166.6875 C-160.05831743 164.02355927 -157.36815022 161.35813325 -154.68096924 158.68965149 C-153.0108903 157.03169195 -151.33814619 155.37641117 -149.66229248 153.72428894 C-145.50730231 149.60451285 -141.55378348 145.40037523 -137.73907471 140.96516418 C-134.61755294 137.43782706 -131.25519254 134.15341211 -127.90625 130.84375 C-127.15589478 130.0971814 -126.40553955 129.35061279 -125.63244629 128.5814209 C-122.45783496 125.42298888 -119.27724084 122.27060721 -116.09716797 119.11767578 C-113.76059639 116.79930255 -111.42712001 114.4778448 -109.09375 112.15625 C-108.3862561 111.45705444 -107.67876221 110.75785889 -106.9498291 110.03747559 C-103.67971068 106.78329853 -100.51358218 103.49420302 -97.5 100 C-93.82967184 95.74430995 -89.90186495 91.79249957 -85.90625 87.84375 C-85.15589478 87.0971814 -84.40553955 86.35061279 -83.63244629 85.5814209 C-80.45783496 82.42298888 -77.27724084 79.27060721 -74.09716797 76.11767578 C-71.76059639 73.79930255 -69.42712001 71.4778448 -67.09375 69.15625 C-66.3862561 68.45705444 -65.67876221 67.75785889 -64.9498291 67.03747559 C-61.68422219 63.78778805 -58.52226814 60.50376317 -55.51367188 57.01367188 C-51.77202888 52.67537778 -47.75995317 48.65111906 -43.6875 44.625 C-42.91494873 43.85623535 -42.14239746 43.0874707 -41.34643555 42.29541016 C-38.07623964 39.0414017 -34.8000651 35.79343734 -31.52441406 32.54492188 C-29.11834715 30.15704648 -26.71536962 27.76609207 -24.3125 25.375 C-23.58313232 24.65393066 -22.85376465 23.93286133 -22.10229492 23.18994141 C-18.06239099 19.16916625 -14.20624233 15.053531 -10.49803162 10.72412109 C-8.4567384 8.37474698 -6.27953638 6.18292813 -4.0625 4 C-3.29035156 3.236875 -2.51820313 2.47375 -1.72265625 1.6875 C-1.15417969 1.130625 -0.58570313 0.57375 0 0 Z " fill="#000000" transform="translate(202,258)"/>
<path d="M0 0 C158.4 0 316.8 0 480 0 C478.23836431 3.52327137 477.64741124 4.5817938 474.796875 6.84765625 C473.83201172 7.62302734 473.83201172 7.62302734 472.84765625 8.4140625 C472.15542969 8.95804688 471.46320313 9.50203125 470.75 10.0625 C470.03199219 10.63613281 469.31398438 11.20976563 468.57421875 11.80078125 C466.38944659 13.54243384 464.19646602 15.27312674 462 17 C461.07670898 17.72678955 461.07670898 17.72678955 460.13476562 18.46826172 C457.85628025 20.26004935 455.57627527 22.04983643 453.29199219 23.83422852 C448.81694329 27.33580898 444.40219241 30.90740619 440 34.5 C434.47660315 39.00759973 428.90815564 43.44842642 423.2890625 47.8359375 C418.81563292 51.33776247 414.40132798 54.90811164 410 58.5 C404.47660315 63.00759973 398.90815564 67.44842642 393.2890625 71.8359375 C388.12848405 75.87566633 383.04903597 80.01144049 377.97192383 84.15527344 C373.57960734 87.73384318 369.15148256 91.26132067 364.6875 94.75 C359.72850347 98.62693327 354.82702555 102.56423009 349.96484375 106.5625 C340.81604143 114.08404499 331.6248003 121.54601604 322.28979492 128.83544922 C317.81602741 132.3373184 313.40155429 135.90792696 309 139.5 C303.47660315 144.00759973 297.90815564 148.44842642 292.2890625 152.8359375 C287.81563292 156.33776247 283.40132798 159.90811164 279 163.5 C273.48671619 167.99934656 267.92887754 172.43259823 262.31982422 176.81176758 C255.13095941 182.43895614 248.06995109 188.22467632 241 194 C238.23344582 192.70891619 235.95037933 191.2935196 233.6015625 189.34765625 C232.96476563 188.82429687 232.32796875 188.3009375 231.671875 187.76171875 C230.99640625 187.20097656 230.3209375 186.64023438 229.625 186.0625 C228.18046525 184.87535508 226.73513907 183.68917258 225.2890625 182.50390625 C224.2047998 181.61469482 224.2047998 181.61469482 223.09863281 180.70751953 C220.0966513 178.26500456 217.05256619 175.87877773 214 173.5 C208.25942578 169.01861146 202.6030528 164.4404224 196.9609375 159.8359375 C192.67548382 156.34469917 188.35670547 152.90181112 184 149.5 C178.25989332 145.0179989 172.60306754 140.44043443 166.9609375 135.8359375 C162.67547989 132.34469597 158.35657515 128.90198179 154 125.5 C145.55371191 118.90021042 137.26247482 112.11185744 128.95898438 105.33398438 C121.45320708 99.20990338 113.92374878 93.12576332 106.28857422 87.16357422 C101.12432721 83.12129091 96.04172103 78.98232406 90.9609375 74.8359375 C86.67548382 71.34469917 82.35670547 67.90181112 78 64.5 C72.25989332 60.0179989 66.60306754 55.44043443 60.9609375 50.8359375 C56.67548382 47.34469917 52.35670547 43.90181112 48 40.5 C42.26359254 36.02088732 36.61017959 31.44655322 30.97192383 26.84472656 C26.57959401 23.26614597 22.15103908 19.73926092 17.6875 16.25 C15.45689958 14.50181998 13.22764066 12.75195002 11 11 C10.44812012 10.56606934 9.89624023 10.13213867 9.32763672 9.68505859 C7.75460007 8.44279413 6.18959737 7.19037682 4.625 5.9375 C3.73039062 5.22464844 2.83578125 4.51179688 1.9140625 3.77734375 C1.28242188 3.19082031 0.65078125 2.60429688 0 2 C0 1.34 0 0.68 0 0 Z " fill="#000000" transform="translate(16,63)"/>
<path d="M0 0 C2.89436103 1.40405856 5.24942663 2.87615849 7.72265625 4.94140625 C8.42052246 5.52059814 9.11838867 6.09979004 9.83740234 6.6965332 C10.57168457 7.31230225 11.3059668 7.92807129 12.0625 8.5625 C13.59754926 9.83867038 15.13270546 11.11471212 16.66796875 12.390625 C17.41224121 13.01130859 18.15651367 13.63199219 18.92333984 14.27148438 C21.56147927 16.46734931 24.21587324 18.64209842 26.875 20.8125 C27.73480469 21.51503906 28.59460938 22.21757813 29.48046875 22.94140625 C30.31191406 23.62074219 31.14335937 24.30007812 32 25 C33.26263672 26.03447266 33.26263672 26.03447266 34.55078125 27.08984375 C40.02315589 31.57313735 45.50811166 36.04065353 51 40.5 C57.34521382 45.65223637 63.6778466 50.81947976 70 56 C71.83321648 57.50014281 73.66655146 59.00014082 75.5 60.5 C93.83333333 75.5 112.16666667 90.5 130.5 105.5 C131.41394531 106.24765625 132.32789063 106.9953125 133.26953125 107.765625 C135.03822795 109.21297051 136.80648543 110.66085301 138.57421875 112.109375 C144.72737088 117.14962517 150.8971456 122.16908934 157.07226562 127.18237305 C161.94778099 131.1416881 166.81244682 135.11383432 171.66796875 139.09765625 C174.09941558 141.0810978 176.54680624 143.04354529 179 145 C177.3837447 149.08663421 174.44804688 151.78950866 171.36328125 154.796875 C170.80561569 155.34933899 170.24795013 155.90180298 169.67338562 156.4710083 C167.89112195 158.23550514 166.10233665 159.99318795 164.3125 161.75 C161.97184639 164.05385591 159.63442053 166.36091415 157.30078125 168.671875 C156.73481232 169.23225464 156.16884338 169.79263428 155.58572388 170.36999512 C152.17471827 173.76856999 148.9590787 177.26438099 145.84057617 180.93457031 C140.97020133 186.39993325 135.60574507 191.44039792 130.39746094 196.58203125 C125.03386065 201.88314938 119.75414004 207.18105925 114.85546875 212.921875 C110.15391419 218.1876161 104.99402855 223.05281128 99.97021484 228.00927734 C93.05093436 234.79964782 93.05093436 234.79964782 86.53125 241.96875 C81.20957431 248.19760209 75.22364586 253.83040446 69.39746094 259.58203125 C64.03386065 264.88314938 58.75414004 270.18105925 53.85546875 275.921875 C49.15391419 281.1876161 43.99402855 286.05281128 38.97021484 291.00927734 C33.73392569 296.18168882 28.59451321 301.36256058 23.81005859 306.96289062 C19.92827469 311.33159914 15.71272268 315.38862029 11.5625 319.5 C10.64017578 320.4178125 9.71785156 321.335625 8.76757812 322.28125 C6.51400101 324.52315055 4.25810925 326.762666 2 329 C0.03636664 325.70538322 -0.24903141 323.24276781 -0.24609566 319.43216324 C-0.25007775 318.29209548 -0.25405985 317.15202773 -0.25816262 315.97741246 C-0.25233693 314.72450563 -0.24651125 313.4715988 -0.24050903 312.1807251 C-0.24138104 310.83671193 -0.24313192 309.4926991 -0.24568737 308.14868808 C-0.25016597 304.45217057 -0.2421502 300.75576863 -0.23213124 297.05926585 C-0.22350642 293.07429553 -0.22641622 289.08933189 -0.22793579 285.10435486 C-0.22898526 278.19902244 -0.22270223 271.29372777 -0.21146011 264.38840485 C-0.19521641 254.40443246 -0.18999827 244.42047837 -0.18748413 234.4364942 C-0.18310525 218.23873969 -0.16979092 202.0410053 -0.15087891 185.84326172 C-0.1325251 170.10726014 -0.11836615 154.37126403 -0.10986328 138.63525391 C-0.10933783 137.66553124 -0.10881239 136.69580857 -0.10827102 135.69670036 C-0.10566097 130.83195978 -0.10313355 125.96721915 -0.10064721 121.1024785 C-0.07990871 80.73497167 -0.04467793 40.36748698 0 0 Z " fill="#000000" transform="translate(0,93)"/>
<path d="M0 0 C0.04574874 41.33498638 0.08100461 82.66996985 0.10213066 124.00497653 C0.10463216 128.88173569 0.1072208 133.75849481 0.10986328 138.63525391 C0.1103879 139.60615447 0.11091252 140.57705502 0.11145304 141.57737681 C0.12016254 157.31097442 0.13593551 173.04455746 0.15430559 188.77814642 C0.17298948 204.9147419 0.18411352 221.05132973 0.18817699 237.18793559 C0.19092519 247.15009248 0.1996142 257.11220819 0.21583293 267.07435241 C0.22638118 273.89996509 0.22960554 280.72555639 0.22700275 287.55117664 C0.22571809 291.49286911 0.22772747 295.43448946 0.23841095 299.3761692 C0.24811382 302.98227442 0.2486543 306.58825873 0.24179779 310.19436941 C0.2405471 312.12205774 0.24919948 314.04974456 0.25816262 315.97741246 C0.25418052 317.11748022 0.25019842 318.25754797 0.24609566 319.43216324 C0.2468551 320.41791722 0.24761454 321.40367119 0.24839699 322.4192965 C-0.00770185 325.0800178 -0.64173283 326.72107671 -2 329 C-4.86590749 326.15912732 -7.72827697 323.31473864 -10.58764648 320.46728516 C-11.55742273 319.50248541 -12.5281007 318.53859105 -13.49975586 317.57568359 C-18.60804079 312.51218507 -23.58524633 307.42035712 -28.26342773 301.95703125 C-31.66005582 298.12919901 -35.35235872 294.58643924 -39 291 C-43.92910718 286.15359596 -48.68972211 281.27002381 -53.1953125 276.02734375 C-56.62009831 272.18001943 -60.32854526 268.60985315 -64 265 C-68.92910718 260.15359596 -73.68972211 255.27002381 -78.1953125 250.02734375 C-81.62009831 246.18001943 -85.32854526 242.60985315 -89 239 C-93.92910718 234.15359596 -98.68972211 229.27002381 -103.1953125 224.02734375 C-106.62009831 220.18001943 -110.32854526 216.60985315 -114 213 C-118.92910718 208.15359596 -123.68972211 203.27002381 -128.1953125 198.02734375 C-131.62009831 194.18001943 -135.32854526 190.60985315 -139 187 C-147.56580265 178.57791887 -147.56580265 178.57791887 -151.45703125 174.04296875 C-155.61080837 169.209069 -160.14818486 164.78127411 -164.6875 160.3125 C-166.36045904 158.66518018 -168.03111173 157.01551414 -169.69921875 155.36328125 C-170.42971436 154.64438721 -171.16020996 153.92549316 -171.9128418 153.18481445 C-174.12372635 150.8704846 -176.17841204 148.63603899 -178 146 C-176.66464967 141.993949 -174.00655761 140.44327973 -170.75 138 C-165.8953769 134.27828792 -161.13884353 130.48762678 -156.5 126.5 C-152.08499984 122.71725154 -147.59077335 119.06729199 -143 115.5 C-137.75802578 111.42605858 -132.65567235 107.21979362 -127.60668945 102.90966797 C-123.72051545 99.5959129 -119.77039748 96.3805778 -115.76953125 93.20703125 C-112.28631542 90.43126687 -108.83014172 87.62308435 -105.375 84.8125 C-104.69203857 84.2570752 -104.00907715 83.70165039 -103.30541992 83.12939453 C-101.90242221 81.98822213 -100.49950959 80.8469451 -99.09667969 79.70556641 C-95.73237286 76.96883521 -92.36611672 74.2345045 -89 71.5 C-87.6666567 70.41667893 -86.33332338 69.33334558 -85 68.25 C-66.33333333 53.08333333 -47.66666667 37.91666667 -29 22.75 C-28.3387915 22.21270264 -27.67758301 21.67540527 -26.99633789 21.12182617 C-25.6754709 20.04875299 -24.35434849 18.97599414 -23.03295898 17.90356445 C-19.50663018 15.04090233 -15.98610503 12.17142978 -12.47265625 9.29296875 C-11.73466797 8.6896875 -10.99667969 8.08640625 -10.23632812 7.46484375 C-8.81023036 6.29885187 -7.38569497 5.13094591 -5.96289062 3.9609375 C-1.1124622 0 -1.1124622 0 0 0 Z " fill="#000000" transform="translate(512,93)"/>
</svg>
