<?xml version="1.0" encoding="UTF-8"?>
<svg version="1.1" xmlns="http://www.w3.org/2000/svg" width="500" height="500">
<path d="M0 0 C0.71687988 0.23976563 1.43375977 0.47953125 2.17236328 0.7265625 C24.72235572 8.42836616 45.63137653 19.7943339 64 35 C64.8660083 35.71373779 64.8660083 35.71373779 65.74951172 36.44189453 C85.58057405 52.87946333 85.58057405 52.87946333 91 61 C91 61.66 91 62.32 91 63 C91.59981689 63.25563721 92.19963379 63.51127441 92.81762695 63.7746582 C95.24093296 65.13527716 96.30396305 66.36247759 97.91796875 68.60546875 C98.44543701 69.33354736 98.97290527 70.06162598 99.51635742 70.81176758 C100.06783447 71.59575928 100.61931152 72.37975098 101.1875 73.1875 C102.05242065 74.40699341 102.05242065 74.40699341 102.93481445 75.65112305 C133.58554312 119.32382168 146.95927323 172.00045757 139 225 C138.80535156 226.29808594 138.61070312 227.59617187 138.41015625 228.93359375 C134.598032 251.33264336 127.12631216 272.36540529 116.02783203 292.15722656 C115.28918569 293.48152646 114.56237012 294.81245092 113.84326172 296.14746094 C110.98451878 301.41696018 107.85220346 306.36835343 104.375 311.25 C103.85719971 311.98017334 103.33939941 312.71034668 102.8059082 313.46264648 C97.8941224 320.30003742 92.55210513 326.67967906 87 333 C86.28328125 333.85078125 85.5665625 334.7015625 84.828125 335.578125 C84.20421875 336.31546875 83.5803125 337.0528125 82.9375 337.8125 C82.41027344 338.43769531 81.88304687 339.06289063 81.33984375 339.70703125 C80 341 80 341 78 341 C78 341.66 78 342.32 78 343 C77.34 343 76.68 343 76 343 C76 343.66 76 344.32 76 345 C74.5390625 346.5078125 74.5390625 346.5078125 72.625 348.125 C71.99851562 348.66382813 71.37203125 349.20265625 70.7265625 349.7578125 C69 351 69 351 67 351 C67 351.66 67 352.32 67 353 C63.53846154 356 63.53846154 356 61 356 C61 356.66 61 357.32 61 358 C58.8671875 359.62890625 58.8671875 359.62890625 55.875 361.5625 C54.78058594 362.27277344 53.68617188 362.98304688 52.55859375 363.71484375 C51.97577637 364.08851074 51.39295898 364.46217773 50.79248047 364.84716797 C49.01169206 365.99248026 47.24132604 367.15248529 45.47265625 368.31640625 C34.63705324 375.41921298 23.9977163 381.24234513 11.796875 385.60546875 C9.34682432 386.48262831 7.02448606 387.43167342 4.63671875 388.48828125 C-40.59652717 407.2909302 -97.58961721 404.98057038 -142.49609375 386.56640625 C-145.70549465 385.11687267 -148.85260369 383.57939308 -152 382 C-153.29746464 381.37352236 -154.59568115 380.74860015 -155.89453125 380.125 C-167.81228814 374.35282643 -178.90426395 367.75262394 -189.54296875 359.82421875 C-191.72587224 358.20352569 -193.94326222 356.65863744 -196.1875 355.125 C-197.115625 354.42375 -198.04375 353.7225 -199 353 C-199 352.34 -199 351.68 -199 351 C-199.58523437 350.74347656 -200.17046875 350.48695313 -200.7734375 350.22265625 C-203.19234608 348.89437838 -204.73198872 347.43475199 -206.625 345.4375 C-209.04521959 342.85984611 -209.04521959 342.85984611 -212 341 C-212 340.34 -212 339.68 -212 339 C-212.66 339 -213.32 339 -214 339 C-215.43549726 337.40665761 -216.79827327 335.74748918 -218.125 334.0625 C-220.92695004 330.5176842 -223.79048318 327.1163982 -226.8359375 323.77734375 C-231.14412421 318.95522093 -234.86799866 313.84385775 -238.5 308.5 C-239.15218506 307.5416626 -239.80437012 306.5833252 -240.47631836 305.59594727 C-245.54960225 297.98633783 -249.63770929 290.25837753 -253.19873047 281.85058594 C-254.41429496 279.04315789 -255.78452569 276.31201508 -257.125 273.5625 C-270.18933875 245.09076176 -273.49466991 215.00125417 -273 184 C-272.98324219 182.77410156 -272.96648437 181.54820312 -272.94921875 180.28515625 C-271.76036993 152.80576499 -262.82324156 122.77747801 -249 99 C-248.5875 98.19433594 -248.175 97.38867188 -247.75 96.55859375 C-242.75528801 86.82187842 -236.33067573 77.90462771 -230 69 C-229.48590576 68.25419678 -228.97181152 67.50839355 -228.44213867 66.73999023 C-227.96623291 66.16579346 -227.49032715 65.59159668 -227 65 C-226.34 65 -225.68 65 -225 65 C-225 64.34 -225 63.68 -225 63 C-224.34 63 -223.68 63 -223 63 C-222.81308594 62.32453125 -222.62617188 61.6490625 -222.43359375 60.953125 C-220.3995601 56.76312653 -217.37645744 53.97480909 -214.0625 50.75 C-213.38662842 50.08468262 -212.71075684 49.41936523 -212.0144043 48.73388672 C-206.59842569 43.45967422 -201.00794134 38.59585586 -195 34 C-193.53626953 32.86304687 -193.53626953 32.86304687 -192.04296875 31.703125 C-174.1323406 18 -174.1323406 18 -169 18 C-169 17.34 -169 16.68 -169 16 C-143.78409738 3.48858157 -119.14776549 -5.1135639 -91.15307617 -8.71801758 C-89.22453452 -8.97059334 -87.30117995 -9.26206178 -85.37890625 -9.55859375 C-56.87555259 -13.03255008 -27.06276707 -9.06479658 0 0 Z M-110 3 C-110.91620117 3.24411621 -111.83240234 3.48823242 -112.77636719 3.73974609 C-143.34545322 11.91030725 -173.25085458 24.33884664 -196.50390625 46.609375 C-198 48 -198 48 -200 49 C-200 49.66 -200 50.32 -200 51 C-200.58265625 51.2578125 -201.1653125 51.515625 -201.765625 51.78125 C-204.1802903 53.09834017 -205.81740177 54.55088384 -207.75 56.5 C-208.36359375 57.1084375 -208.9771875 57.716875 -209.609375 58.34375 C-211.21434088 59.89484277 -211.21434088 59.89484277 -211 62 C-211.66 62 -212.32 62 -213 62 C-214.87001078 64.19355232 -216.63431966 66.39484076 -218.375 68.6875 C-219.34101287 69.94150869 -220.30715651 71.19541665 -221.2734375 72.44921875 C-221.73459961 73.05427246 -222.19576172 73.65932617 -222.67089844 74.28271484 C-223.86477353 75.82527866 -225.10546747 77.3313354 -226.3515625 78.83203125 C-228.20175503 80.8114252 -228.20175503 80.8114252 -228 83 C-228.66 83 -229.32 83 -230 83 C-230 83.99 -230 84.98 -230 86 C-230.66 86 -231.32 86 -232 86 C-233.83041655 88.60108946 -233.83041655 88.60108946 -235.625 91.8125 C-236.57246094 93.43091797 -236.57246094 93.43091797 -237.5390625 95.08203125 C-239.22384617 97.9032168 -239.22384617 97.9032168 -239 101 C-239.66 101 -240.32 101 -241 101 C-256.02570042 130.49489341 -264.48420742 161.54561508 -264.3125 194.6875 C-264.31067719 195.42534729 -264.30885437 196.16319458 -264.30697632 196.92340088 C-264.25636225 209.15749745 -263.47912992 221.00040957 -261 233 C-260.84966309 233.77778809 -260.69932617 234.55557617 -260.54443359 235.35693359 C-256.64467707 255.0419974 -249.02016545 274.65142502 -239 292 C-238.34 292 -237.68 292 -237 292 C-236.91234375 292.53109375 -236.8246875 293.0621875 -236.734375 293.609375 C-232.24046454 308.23848778 -217.51813566 323.08687176 -206.609375 333.3984375 C-205 335 -205 335 -204 337 C-203.34 337 -202.68 337 -202 337 C-202 337.66 -202 338.32 -202 339 C-199.03566084 341.75641958 -195.81910296 344.20876376 -192.63818359 346.71044922 C-191.02926721 347.97696134 -189.4305933 349.25561523 -187.83203125 350.53515625 C-175.47501561 360.92237865 -175.47501561 360.92237865 -161 367 C-161 367.66 -161 368.32 -161 369 C-160.33613281 369.25394531 -159.67226562 369.50789063 -158.98828125 369.76953125 C-157.66376953 370.28580078 -157.66376953 370.28580078 -156.3125 370.8125 C-155.44238281 371.14894531 -154.57226562 371.48539062 -153.67578125 371.83203125 C-151 373 -151 373 -148.515625 374.4921875 C-135.03975111 382.56934172 -117.2714785 386.36961643 -102 389.3125 C-101.17693359 389.47177979 -100.35386719 389.63105957 -99.50585938 389.79516602 C-58.81159542 397.17527084 -11.00069607 391.13084334 25 370 C27.4375 369.25 27.4375 369.25 29 369 C29 368.34 29 367.68 29 367 C29.56589844 366.88785156 30.13179688 366.77570313 30.71484375 366.66015625 C42.94745446 363.12629093 54.02570337 352.13025266 63.56640625 344.00390625 C66 342 66 342 68 341 C68 340.34 68 339.68 68 339 C68.66 339 69.32 339 70 339 C70 338.34 70 337.68 70 337 C70.66 337 71.32 337 72 337 C72 336.34 72 335.68 72 335 C72.66 335 73.32 335 74 335 C76.66666667 332.66666667 76.66666667 332.66666667 79 330 C79 329.34 79 328.68 79 328 C79.66 328 80.32 328 81 328 C82.75403139 325.99626275 84.38537623 323.98741292 86 321.875 C86.72932739 320.930802 86.72932739 320.930802 87.47338867 319.9675293 C97.8870621 306.40550587 97.8870621 306.40550587 106.55078125 291.6953125 C107.74521496 289.47385898 109.0143553 287.42778345 110.390625 285.3203125 C113.31217513 280.68470666 115.39828397 275.82477991 117.4375 270.75 C117.82510498 269.78545898 118.21270996 268.82091797 118.61206055 267.82714844 C131.74235336 234.54521977 136.41972859 197.43690182 130 162 C129.8146167 160.91187012 129.8146167 160.91187012 129.62548828 159.80175781 C125.22045663 134.37538118 115.21227806 109.52250986 101 88 C100.67 87.34 100.34 86.68 100 86 C99.34 86 98.68 86 98 86 C97.89494141 85.41879395 97.78988281 84.83758789 97.68164062 84.23876953 C96.89643264 81.65984504 95.81962887 80.24103799 94.09375 78.1796875 C93.22556641 77.12974609 93.22556641 77.12974609 92.33984375 76.05859375 C91.73269531 75.33800781 91.12554687 74.61742188 90.5 73.875 C89.30055165 72.4361713 88.10256269 70.99612439 86.90625 69.5546875 C86.37322266 68.92030762 85.84019531 68.28592773 85.29101562 67.63232422 C84 66 84 66 83 64 C82.34 64 81.68 64 81 64 C81 63.34 81 62.68 81 62 C80.34 62 79.68 62 79 62 C78.75121094 61.42636719 78.50242187 60.85273437 78.24609375 60.26171875 C72.12914801 49.15917461 58.53008509 40.98505351 48.375 33.75 C47.68277344 33.25459717 46.99054688 32.75919434 46.27734375 32.2487793 C41.36557951 28.79766139 36.30252313 25.80959009 31 23 C30.02571045 22.48348877 30.02571045 22.48348877 29.03173828 21.95654297 C12.90575048 13.53189547 -3.44514623 7.66067724 -21 3 C-22.18722656 2.67902344 -23.37445313 2.35804687 -24.59765625 2.02734375 C-51.7937115 -4.81464739 -82.96218301 -4.35142274 -110 3 Z " fill="#DCDCDC" transform="translate(316,47)"/>
<path d="M0 0 C0.68368652 0.21430664 1.36737305 0.42861328 2.07177734 0.64941406 C15.13129371 4.89244445 30.55529223 10.88989378 41 20 C41 20.66 41 21.32 41 22 C41.721875 22.226875 42.44375 22.45375 43.1875 22.6875 C46.54562879 24.25462677 48.4618052 26.328216 51 29 C51.99 29.66 52.98 30.32 54 31 C54 31.66 54 32.32 54 33 C54.66 33 55.32 33 56 33 C56 33.66 56 34.32 56 35 C56.66 35 57.32 35 58 35 C59.60634015 36.73391951 61.1375287 38.538091 62.625 40.375 C63.44226563 41.37273437 64.25953125 42.37046875 65.1015625 43.3984375 C67 46 67 46 67 48 C67.66 48 68.32 48 69 48 C86.559874 69.30132442 93.42113672 99.6030126 93.25 126.5 C93.25773437 127.71558594 93.26546875 128.93117187 93.2734375 130.18359375 C93.24463333 143.67834746 90.83246532 156.11753763 87 169 C86.66355469 170.13179687 86.32710937 171.26359375 85.98046875 172.4296875 C81.62492215 185.7579679 74.33353716 200.44673923 65 211 C64.34 211 63.68 211 63 211 C62.73960937 211.5775 62.47921875 212.155 62.2109375 212.75 C59.35193752 218.06220642 54.49047904 223.00846308 50 227 C49.34 227 48.68 227 48 227 C48 227.66 48 228.32 48 229 C43.52941176 233 43.52941176 233 41 233 C41 233.66 41 234.32 41 235 C36.88117433 237.98704401 32.4018328 240.45401097 28 243 C27.35256836 243.38172363 26.70513672 243.76344727 26.03808594 244.15673828 C7.19705582 255.17285018 -12.91930951 260.4160341 -34.75 260.3125 C-35.98210205 260.30758545 -37.2142041 260.3026709 -38.48364258 260.29760742 C-47.6793338 260.1795354 -56.08339489 259.37011583 -65 257 C-65.67498535 256.83371094 -66.3499707 256.66742188 -67.04541016 256.49609375 C-86.78023259 251.61101279 -103.24921503 241.73732118 -119 229 C-119.62261719 228.51273438 -120.24523437 228.02546875 -120.88671875 227.5234375 C-122.29838673 226.39805184 -123.65637997 225.20581284 -125 224 C-125 223.34 -125 222.68 -125 222 C-125.66 222 -126.32 222 -127 222 C-127 221.34 -127 220.68 -127 220 C-127.66 220 -128.32 220 -129 220 C-133 215.52941176 -133 215.52941176 -133 213 C-133.66 213 -134.32 213 -135 213 C-136.2175293 211.64575195 -136.2175293 211.64575195 -137.57421875 209.73828125 C-138.07348877 209.03856201 -138.57275879 208.33884277 -139.0871582 207.61791992 C-139.615271 206.85713135 -140.14338379 206.09634277 -140.6875 205.3125 C-141.22914795 204.53302002 -141.7707959 203.75354004 -142.32885742 202.95043945 C-162.17649425 174.00584537 -169.92457933 137.6761109 -163.875 102.9375 C-163.33151151 100.26810988 -162.68274344 97.63682377 -162 95 C-161.81195801 94.22962402 -161.62391602 93.45924805 -161.43017578 92.66552734 C-154.80585437 66.04703296 -139.21635148 40.60122968 -117 24 C-116.34 24 -115.68 24 -115 24 C-115 23.34 -115 22.68 -115 22 C-112.57816622 20.17902624 -110.1691734 18.51089575 -107.625 16.875 C-106.86348633 16.38507568 -106.10197266 15.89515137 -105.31738281 15.39038086 C-93.47638206 7.97219971 -80.55186474 2.42519658 -67 -1 C-65.93394531 -1.29777344 -64.86789063 -1.59554687 -63.76953125 -1.90234375 C-43.88637615 -6.60751786 -19.49244693 -6.14075168 0 0 Z M-97.10351562 19.86572266 C-98.72907917 20.83796368 -100.38541687 21.75842693 -102.046875 22.66796875 C-126.00409254 36.45400074 -145.22732957 62.82938834 -152.51171875 89.25390625 C-158.52573935 112.39649299 -160.37786491 138.9009324 -153 162 C-152.7426709 162.80598633 -152.4853418 163.61197266 -152.22021484 164.44238281 C-147.21297686 179.66649829 -139.872625 192.69106251 -131 206 C-130.34 206 -129.68 206 -129 206 C-129 206.66 -129 207.32 -129 208 C-128.34 208 -127.68 208 -127 208 C-126.773125 208.53625 -126.54625 209.0725 -126.3125 209.625 C-124.54429911 212.82460161 -122.46329797 215.29037223 -120 218 C-119.34 218 -118.68 218 -118 218 C-118 218.66 -118 219.32 -118 220 C-116.26608049 221.60634015 -114.461909 223.1375287 -112.625 224.625 C-111.12839844 225.85089844 -111.12839844 225.85089844 -109.6015625 227.1015625 C-107.26750115 229.19648969 -107.26750115 229.19648969 -105 229 C-105 229.66 -105 230.32 -105 231 C-101.35404038 233.03926555 -97.68056469 235.023942 -94 237 C-93.10837158 237.48944092 -93.10837158 237.48944092 -92.19873047 237.98876953 C-74.45383616 247.67924373 -55.57733926 252.41749917 -35.3125 252.3125 C-33.61130005 252.30512817 -33.61130005 252.30512817 -31.87573242 252.29760742 C-7.41439298 251.95890394 16.48144307 244.01427456 36 229 C36 228.34 36 227.68 36 227 C36.54269531 226.77183594 37.08539063 226.54367187 37.64453125 226.30859375 C40.69307391 224.61495894 43.1414783 222.41464771 45.6875 220.0625 C46.47870239 219.33268921 46.47870239 219.33268921 47.28588867 218.58813477 C52.37848215 213.79469742 56.78346921 208.57854364 61 203 C61.61488281 202.20078125 62.22976563 201.4015625 62.86328125 200.578125 C71.43147012 188.95122568 76.84036127 175.73626847 81 162 C81.21317871 161.31470215 81.42635742 160.6294043 81.64599609 159.92333984 C87.95260233 138.74294539 87.54682095 112.05054736 81 91 C80.42185547 89.12248047 80.42185547 89.12248047 79.83203125 87.20703125 C77.13604072 79.20630854 73.67115398 71.59462095 70 64 C69.34 64 68.68 64 68 64 C67.87923096 63.40759521 67.75846191 62.81519043 67.6340332 62.20483398 C66.62201146 58.68555468 64.33282565 55.97510951 62.1875 53.0625 C61.74857422 52.45470703 61.30964844 51.84691406 60.85742188 51.22070312 C59.58592154 49.46932005 58.29732498 47.7323134 57 46 C56.27425781 45.02933594 55.54851562 44.05867188 54.80078125 43.05859375 C54.20652344 42.37925781 53.61226562 41.69992188 53 41 C52.34 41 51.68 41 51 41 C51 40.34 51 39.68 51 39 C49.66666667 37.33333333 49.66666667 37.33333333 48 36 C47.34 36 46.68 36 46 36 C46 35.34 46 34.68 46 34 C44.28502228 32.41173778 44.28502228 32.41173778 42.125 30.875 C41.40570313 30.33617187 40.68640625 29.79734375 39.9453125 29.2421875 C38.10373994 27.82060368 38.10373994 27.82060368 36 28 C36 27.34 36 26.68 36 26 C21.54774564 14.67090231 4.55597045 9.24996601 -13 5 C-13.89936279 4.72820923 -13.89936279 4.72820923 -14.81689453 4.45092773 C-18.04807657 3.78351628 -21.28295706 3.73599603 -24.5703125 3.65625 C-25.68829224 3.62898331 -25.68829224 3.62898331 -26.82885742 3.60116577 C-52.62553157 3.08759491 -74.55925525 6.3423298 -97.10351562 19.86572266 Z " fill="#D8D8D8" transform="translate(286,114)"/>
<path d="M0 0 C0 0.66 0 1.32 0 2 C0.54140625 2.06316406 1.0828125 2.12632812 1.640625 2.19140625 C4.98878197 3.33887064 7.21269749 5.56335736 9.75 7.9375 C10.25660156 8.39318359 10.76320313 8.84886719 11.28515625 9.31835938 C12.56785768 10.49906703 13.78935193 11.74551812 15 13 C15 13.66 15 14.32 15 15 C15.66 15 16.32 15 17 15 C26.58797486 27.45593215 29.83735308 41.86572549 28.77734375 57.2265625 C27.32655303 67.90325534 23.32853875 78.27687902 17 87 C16.34 87 15.68 87 15 87 C15 87.99 15 88.98 15 90 C14.34 90 13.68 90 13 90 C12.690625 90.61875 12.38125 91.2375 12.0625 91.875 C11.375 93.25 10.6875 94.625 10 96 C9.34 96 8.68 96 8 96 C7.7525 96.680625 7.505 97.36125 7.25 98.0625 C6 101 6 101 4.08203125 104.1015625 C1.2450337 109.00798285 0.16305634 114.30251876 -1.15429688 119.76757812 C-1.35216797 120.54166016 -1.55003906 121.31574219 -1.75390625 122.11328125 C-1.92220947 122.81235596 -2.0905127 123.51143066 -2.26391602 124.23168945 C-3 126 -3 126 -6 128 C-5.34 128.33 -4.68 128.66 -4 129 C-4.875 133.875 -4.875 133.875 -6 135 C-7.75750547 135.27555787 -9.52432793 135.49210676 -11.29296875 135.68359375 C-12.3919751 135.80565186 -13.49098145 135.92770996 -14.62329102 136.0534668 C-15.79947998 136.18019775 -16.97566895 136.30692871 -18.1875 136.4375 C-25.49942736 137.24585627 -32.79184814 138.06399971 -40.0625 139.1875 C-45.11306051 139.94854336 -49.89691589 140.17596842 -55 140 C-55.625 137.125 -55.625 137.125 -56 134 C-53.21561952 131.21561952 -50.31222293 131.33640669 -46.5625 130.9375 C-45.90056641 130.85951172 -45.23863281 130.78152344 -44.55664062 130.70117188 C-38.71481362 130.02861139 -32.85728074 129.51691878 -27 129 C-27.76666992 128.9906543 -28.53333984 128.98130859 -29.32324219 128.97167969 C-32.79948103 128.91797227 -36.27437474 128.83432424 -39.75 128.75 C-40.9565625 128.73582031 -42.163125 128.72164062 -43.40625 128.70703125 C-45.14648438 128.65869141 -45.14648438 128.65869141 -46.921875 128.609375 C-47.99018555 128.58842773 -49.05849609 128.56748047 -50.15917969 128.54589844 C-53.67830589 127.86965521 -54.83792528 126.81539257 -57 124 C-57.80200195 122.05224609 -57.80200195 122.05224609 -58.23828125 120.0234375 C-58.41496338 119.27473389 -58.59164551 118.52603027 -58.77368164 117.75463867 C-59.04039673 116.57671753 -59.04039673 116.57671753 -59.3125 115.375 C-61.22693725 107.73025358 -63.80464958 102.04482715 -69 96 C-73 91.07692308 -73 91.07692308 -73 89 C-73.66 89 -74.32 89 -75 89 C-77 86 -77 86 -77 83 C-77.66 83 -78.32 83 -79 83 C-87.25930428 65.39929007 -90.76403705 50.22059938 -85 31 C-82.36878168 24.68360197 -79.21410542 18.41813554 -75 13 C-74.34 13 -73.68 13 -73 13 C-73 12.34 -73 11.68 -73 11 C-71.1015625 9.2734375 -71.1015625 9.2734375 -68.625 7.375 C-67.81289062 6.74335938 -67.00078125 6.11171875 -66.1640625 5.4609375 C-64 4 -64 4 -62 4 C-62 3.34 -62 2.68 -62 2 C-41.60323249 -8.79212528 -21.22463104 -9.63422193 0 0 Z M-61 12 C-61.56203125 12.41765625 -62.1240625 12.8353125 -62.703125 13.265625 C-73.6038593 21.89142344 -78.5840379 34.62939525 -80.2578125 48.0703125 C-80.97756265 60.68993181 -75.88750163 72.77053329 -69 83 C-68.34 83.99 -67.68 84.98 -67 86 C-66.34 86 -65.68 86 -65 86 C-65 86.66 -65 87.32 -65 88 C-64.34 88 -63.68 88 -63 88 C-62.79375 88.66 -62.5875 89.32 -62.375 90 C-61.12995429 92.71646337 -59.92742034 94.40609621 -58.0625 96.6875 C-54.61645957 101.14806814 -53.26114149 105.56289331 -52 111 C-51.79503906 111.87011719 -51.59007812 112.74023438 -51.37890625 113.63671875 C-50.89719888 115.75290906 -50.44538257 117.87586776 -50 120 C-45.8804152 121.16380158 -41.97744716 121.0285021 -37.734375 120.87890625 C-36.94097717 120.85529526 -36.14757935 120.83168427 -35.33013916 120.80735779 C-32.80323317 120.73096071 -30.27665233 120.64683387 -27.75 120.5625 C-26.03386992 120.5092553 -24.31772412 120.45651507 -22.6015625 120.40429688 C-18.40083689 120.27537813 -14.20038608 120.13952774 -10 120 C-8.53480533 116.45245177 -7.56821931 113.13838074 -6.8125 109.375 C-5.41586305 103.52070315 -2.9427379 99.18988293 0.4765625 94.27734375 C2.14863949 91.99515318 2.14863949 91.99515318 3 89 C3.66 89 4.32 89 5 89 C6.55495997 87.03078428 7.97640938 85.07642817 9.375 83 C9.77984619 82.40493652 10.18469238 81.80987305 10.60180664 81.19677734 C18.52851887 69.38448476 22.39470429 57.1924578 20.3125 42.875 C18.51524519 33.74589777 15.06438531 25.17330149 9 18 C8.34 18 7.68 18 7 18 C7 17.34 7 16.68 7 16 C6.34 16 5.68 16 5 16 C5 15.34 5 14.68 5 14 C-14.27671247 -2.23051593 -40.89115452 -3.08163411 -61 12 Z " fill="#DDDDDD" transform="translate(280,171)"/>
<path d="M0 0 C4.125 -0.0825 8.25 -0.165 12.5 -0.25 C13.78455078 -0.28641602 15.06910156 -0.32283203 16.39257812 -0.36035156 C23.43220043 -0.42825084 28.0521909 0.14100481 34 4 C36.55209241 6.95085685 36.95838152 8.61156087 37.375 12.5 C36.98229145 16.16527979 36.14523699 18.05029914 34 21 C34.9590625 22.175625 34.9590625 22.175625 35.9375 23.375 C38.92217308 27.17367482 39.4656035 29.15772359 39 34 C36.51074648 38.88276651 34.08821113 41.02702017 29 43 C25.36188722 43.88601658 22.00097967 44.1176523 18.26171875 44.09765625 C17.29967529 44.09515869 16.33763184 44.09266113 15.34643555 44.09008789 C14.13898682 44.08098389 12.93153809 44.07187988 11.6875 44.0625 C7.830625 44.041875 3.97375 44.02125 0 44 C0 29.48 0 14.96 0 0 Z M12 11 C12 12.65 12 14.3 12 16 C15.63 16 19.26 16 23 16 C23.66 14.68 24.32 13.36 25 12 C23.19114534 9.76805231 23.19114534 9.76805231 20.65234375 9.76953125 C19.75644531 9.78371094 18.86054688 9.79789063 17.9375 9.8125 C16.58978516 9.82216797 16.58978516 9.82216797 15.21484375 9.83203125 C13.02674401 9.75605257 13.02674401 9.75605257 12 11 Z M12 26 C12 28.31 12 30.62 12 33 C14.14576637 33.02685938 16.29162645 33.04633088 18.4375 33.0625 C20.22994141 33.07990234 20.22994141 33.07990234 22.05859375 33.09765625 C24.88873341 33.33901792 24.88873341 33.33901792 26 32 C26.04063832 30.33382885 26.042721 28.66611905 26 27 C23.23547967 25.61773984 20.9538637 25.90474613 17.875 25.9375 C16.77929688 25.94652344 15.68359375 25.95554687 14.5546875 25.96484375 C13.29011719 25.98224609 13.29011719 25.98224609 12 26 Z " fill="#E4E4E4" transform="translate(232,57)"/>
<path d="M0 0 C2.475 0.495 2.475 0.495 5 1 C5.495 7.435 5.495 7.435 6 14 C7.98 13.34 9.96 12.68 12 12 C12 11.34 12 10.68 12 10 C14.35951055 7.23600193 16.94688294 4.96958076 20 3 C23.8125 2.75 23.8125 2.75 27 4 C29.0625 6.125 29.0625 6.125 30 9 C29.14526095 15.34949012 25.66185798 19.88002662 22 25 C20.72812677 26.81177043 19.45728618 28.62426624 18.1875 30.4375 C17.60355469 31.26121094 17.01960938 32.08492187 16.41796875 32.93359375 C14.97593408 34.93369733 14.97593408 34.93369733 14 37 C13.34 37 12.68 37 12 37 C12 27.83314659 16.28719016 21.54693694 21 14 C18.25058813 14 14.666092 18.43312251 12.640625 20.15234375 C9.92218123 22.05445012 8.21083732 22.47123915 5 23 C5.05329468 24.31436035 5.05329468 24.31436035 5.10766602 25.65527344 C5.23834228 28.96515702 5.36237039 32.27516094 5.48217773 35.58544922 C5.53493231 37.00709694 5.59019213 38.42865433 5.64819336 39.85009766 C6.00483894 48.63908524 5.99880344 57.23885869 5 66 C3.1875 66.625 3.1875 66.625 1 67 C-0.485 66.01 -0.485 66.01 -2 65 C-2.99 65.99 -2.99 65.99 -4 67 C-7.53571429 66.46428571 -7.53571429 66.46428571 -9 65 C-9.08865208 62.1156618 -9.11521296 59.25537842 -9.09765625 56.37109375 C-9.0962413 55.50686295 -9.09482635 54.64263214 -9.09336853 53.75221252 C-9.08775239 50.98060708 -9.07519719 48.2090812 -9.0625 45.4375 C-9.05748708 43.5631522 -9.05292381 41.68880315 -9.04882812 39.81445312 C-9.03777772 35.20960456 -9.0205023 30.60481579 -9 26 C-10.27230469 26.01804688 -11.54460937 26.03609375 -12.85546875 26.0546875 C-17.69814458 26.12337794 -20.00416497 24.66389002 -24 22 C-24 21.34 -24 20.68 -24 20 C-24.66 20 -25.32 20 -26 20 C-27.22159091 13.64772727 -27.22159091 13.64772727 -26.1875 10.625 C-25 9 -25 9 -23 8 C-18.75184913 7.55790774 -16.64572017 7.58163419 -13.015625 9.93359375 C-12.10296875 10.75988281 -11.1903125 11.58617187 -10.25 12.4375 C-6.51416814 15.88297597 -6.51416814 15.88297597 -2 18 C-1.90912109 16.30230469 -1.90912109 16.30230469 -1.81640625 14.5703125 C-1.73200083 13.08852855 -1.64735283 11.6067584 -1.5625 10.125 C-1.52318359 9.37863281 -1.48386719 8.63226563 -1.44335938 7.86328125 C-1.11328125 2.2265625 -1.11328125 2.2265625 0 0 Z M-2 26 C-2 36.89 -2 47.78 -2 59 C-1.67 59 -1.34 59 -1 59 C-1 48.11 -1 37.22 -1 26 C-1.33 26 -1.66 26 -2 26 Z " fill="#D2D2D2" transform="translate(251,223)"/>
<path d="M0 0 C4.67276509 0.53780881 8.03884074 2.63695293 11.875 5.1875 C12.49415283 5.59532715 13.11330566 6.0031543 13.7512207 6.42333984 C26.83451933 15.15013258 26.83451933 15.15013258 29 23 C29.1840296 27.19267447 28.44884354 30.31177323 26.125 33.875 C22.09451796 37.90548204 22.09451796 37.90548204 18.73828125 38.1953125 C17.93777344 38.17210937 17.13726562 38.14890625 16.3125 38.125 C15.50425781 38.10695312 14.69601562 38.08890625 13.86328125 38.0703125 C13.24839844 38.04710937 12.63351562 38.02390625 12 38 C12.33 38.66 12.66 39.32 13 40 C13.2322646 42.71262116 13.41936235 45.40773126 13.5625 48.125 C13.60568359 48.87910156 13.64886719 49.63320312 13.69335938 50.41015625 C13.7994832 52.27321888 13.90025001 54.13658524 14 56 C10.78149993 54.80138618 8.03029256 53.51755744 5.25 51.5 C4.65703125 51.0771875 4.0640625 50.654375 3.453125 50.21875 C1.04759064 48.20120505 0.99076893 46.90495418 0.68359375 43.7421875 C0.60238281 42.46601562 0.52117187 41.18984375 0.4375 39.875 C0.31181641 37.95300781 0.31181641 37.95300781 0.18359375 35.9921875 C0.12300781 35.00476563 0.06242187 34.01734375 0 33 C-1.65 32.67 -3.3 32.34 -5 32 C-7.97 36.455 -7.97 36.455 -11 41 C-14.465 39.515 -14.465 39.515 -18 38 C-18 37.34 -18 36.68 -18 36 C-18.99 36 -19.98 36 -21 36 C-20.52583422 31.02125936 -19.0900669 27.93281242 -16 24 C-15.34 24 -14.68 24 -14 24 C-13.78472656 23.35417969 -13.56945312 22.70835938 -13.34765625 22.04296875 C-11.48320559 17.83309319 -8.97552694 14.14391327 -6.4375 10.3125 C-5.43537449 8.78830148 -4.43403407 7.26358641 -3.43359375 5.73828125 C-2.99072021 5.06837158 -2.54784668 4.39846191 -2.09155273 3.70825195 C-0.95043193 1.98815958 -0.95043193 1.98815958 0 0 Z M6 14 C4.63823419 15.98075027 3.30406884 17.98079663 2 20 C3.27273947 23.95963389 5.68299713 25.37729554 9.1796875 27.25 C11.53294894 28.21958411 13.48739234 28.3045585 16 28 C16.33 26.02 16.66 24.04 17 22 C15.35653302 20.66375099 13.71016314 19.33107149 12.0625 18 C11.14597656 17.2575 10.22945313 16.515 9.28515625 15.75 C7.34738938 13.89866599 7.34738938 13.89866599 6 14 Z " fill="#E7E7E7" transform="translate(340,80)"/>
<path d="M0 0 C4.62 0 9.24 0 14 0 C13.67 5.28 13.34 10.56 13 16 C17.95 16 22.9 16 28 16 C27.67 10.72 27.34 5.44 27 0 C31.62 0 36.24 0 41 0 C41 14.19 41 28.38 41 43 C36.38 43 31.76 43 27 43 C27.33 37.72 27.66 32.44 28 27 C22.72 27 17.44 27 12 27 C12.33 32.28 12.66 37.56 13 43 C2.375 43.125 2.375 43.125 -1 42 C-0.96970703 41.43829102 -0.93941406 40.87658203 -0.90820312 40.29785156 C-0.19908563 26.85189295 0.13142662 13.46392727 0 0 Z " fill="#E9E9E9" transform="translate(226,382)"/>
<path d="M0 0 C5.23315252 0.76210959 10.27001887 2.02651442 15.375 3.375 C16.18710937 3.58382812 16.99921875 3.79265625 17.8359375 4.0078125 C23.0343927 5.37407316 27.99724926 7.03340143 33 9 C32.34 11.97 31.68 14.94 31 18 C26.01155691 17.3900874 21.39844654 16.36525565 16.5625 14.9375 C15.32628906 14.57527344 14.09007812 14.21304688 12.81640625 13.83984375 C11.88699219 13.56269531 10.95757812 13.28554687 10 13 C9.67 14.65 9.34 16.3 9 18 C14.28 19.65 19.56 21.3 25 23 C23.6328125 29.93359375 23.6328125 29.93359375 23 32 C19.85681547 33.57159226 17.07066611 32.04018399 13.875 31.0625 C13.21628906 30.86720703 12.55757813 30.67191406 11.87890625 30.47070312 C10.25066448 29.98695014 8.62506818 29.49430925 7 29 C6.01 30.65 5.02 32.3 4 34 C5.24136719 34.18369141 5.24136719 34.18369141 6.5078125 34.37109375 C10.3596021 35.06476056 14.10444874 36.02852131 17.875 37.0625 C18.56335938 37.24876953 19.25171875 37.43503906 19.9609375 37.62695312 C21.64132514 38.08205811 23.32076322 38.54066678 25 39 C24.125 46.625 24.125 46.625 23 50 C12.29373827 47.14165378 1.650808 44.0568605 -9 41 C-10.03507738 37.12322777 -9.91381712 34.73638177 -8.671875 30.9375 C-8.36773682 29.98109619 -8.06359863 29.02469238 -7.75024414 28.03930664 C-7.42016357 27.03633545 -7.09008301 26.03336426 -6.75 25 C-4.11679552 16.71592957 -1.71874272 8.52823766 0 0 Z " fill="#E3E3E3" transform="translate(289,61)"/>
<path d="M0 0 C5.2734375 15.8203125 5.2734375 15.8203125 6.17822266 18.55786133 C6.82982628 20.49428172 7.52462618 22.41615865 8.234375 24.33203125 C9.81947901 29.85563349 9.14603048 35.80344158 6.5 40.875 C-0.64792706 46.950738 -6.31733024 48.78997698 -15.81640625 48.421875 C-21.00248754 47.73463969 -23.4743581 45.65329765 -26.9140625 41.92578125 C-29.6168046 38.13485647 -31.12664868 34.2155488 -32.75 29.875 C-33.06582031 29.06417969 -33.38164062 28.25335938 -33.70703125 27.41796875 C-36 21.4125744 -36 21.4125744 -36 18 C-36.66 18 -37.32 18 -38 18 C-38.33 16.02 -38.66 14.04 -39 12 C-34.65395988 9.95480465 -31.86396383 8.79838492 -27 9 C-23.86560569 16.40250571 -20.89044189 23.83834352 -18.11328125 31.3828125 C-17.15066117 34.09860614 -17.15066117 34.09860614 -15 36 C-11.16762641 36.42581929 -8.83150673 36.466455 -5.4375 34.5625 C-3.48345113 31.0791955 -4.17971963 29.24400274 -5.2265625 25.5 C-5.48179687 24.675 -5.73703125 23.85 -6 23 C-6.23460937 22.154375 -6.46921875 21.30875 -6.7109375 20.4375 C-7.81848478 16.53131175 -9.03189421 12.7719941 -10.6875 9.0625 C-12 6 -12 6 -12 3 C-10.56445975 2.49440092 -9.1264798 1.9957251 -7.6875 1.5 C-6.88699219 1.2215625 -6.08648437 0.943125 -5.26171875 0.65625 C-3 0 -3 0 0 0 Z " fill="#E4E4E4" transform="translate(211,61)"/>
<path d="M0 0 C2.54181707 2.02837875 4.61580534 4.43042472 6.75 6.875 C7.36254639 7.55594727 7.97509277 8.23689453 8.60620117 8.93847656 C9.83791037 10.30981074 11.06415328 11.68607587 12.28466797 13.06738281 C13.79635109 14.7705544 15.32805586 16.4497609 16.87890625 18.1171875 C22.86412134 24.59236402 22.86412134 24.59236402 24 28 C25.93330603 29.09166275 25.93330603 29.09166275 28 30 C30 32 30 32 30 35 C26.04 36.32 22.08 37.64 18 39 C17.34 37.68 16.68 36.36 16 35 C15.34 35 14.68 35 14 35 C13.34 34.01 12.68 33.02 12 32 C6.57500185 32.69255295 1.32981419 33.77004288 -4 35 C-4 38.3 -4 41.6 -4 45 C-5.60256108 45.50512244 -7.20711792 46.00391627 -8.8125 46.5 C-9.70582031 46.7784375 -10.59914063 47.056875 -11.51953125 47.34375 C-14 48 -14 48 -17 48 C-16.58717124 38.60458689 -15.55725245 29.45650894 -14.09326172 20.16992188 C-13.14604772 14.12747124 -12.40612776 8.10592079 -12 2 C-3.54977609 -0.65105064 -3.54977609 -0.65105064 0 0 Z M-2 15 C-2.33 17.97 -2.66 20.94 -3 24 C-0.69 23.34 1.62 22.68 4 22 C3.19152271 20.83054208 2.37810888 19.66449539 1.5625 18.5 C1.11003906 17.8503125 0.65757812 17.200625 0.19140625 16.53125 C-0.20175781 16.0259375 -0.59492188 15.520625 -1 15 C-1.33 15 -1.66 15 -2 15 Z " fill="#E5E5E5" transform="translate(299,376)"/>
<path d="M0 0 C-0.66 6.93 -1.32 13.86 -2 21 C0.43375 21.9075 2.8675 22.815 5.375 23.75 C11.6173555 26.08436363 17.83027098 28.47871651 24 31 C24 34 24 34 22.75 35.421875 C19.41219495 37.95503062 17.60444701 38.97951027 13.3125 39.125 C6.93453465 37.84690085 0.7918022 34.8959011 -5 32 C-5.48792229 35.25281528 -5.40014561 37.34713084 -3.6640625 40.1796875 C-2.15782398 42.1667909 -0.61782175 44.1029114 1 46 C-0.71529726 49.73745963 -2.49279591 51.7453688 -6 54 C-8.51229903 53.76289176 -9.6681012 53.33073638 -11.46386719 51.54125977 C-11.90375977 50.93080811 -12.34365234 50.32035645 -12.796875 49.69140625 C-13.28027344 49.02689453 -13.76367188 48.36238281 -14.26171875 47.67773438 C-14.99841797 46.63069336 -14.99841797 46.63069336 -15.75 45.5625 C-16.25660156 44.86833984 -16.76320312 44.17417969 -17.28515625 43.45898438 C-21 38.28724099 -21 38.28724099 -21 36 C-21.66 36 -22.32 36 -23 36 C-24.63820852 33.92710438 -26.14252648 31.86719935 -27.625 29.6875 C-28.25535156 28.79514648 -28.25535156 28.79514648 -28.8984375 27.88476562 C-32 23.37843699 -32 23.37843699 -32 20 C-30.609375 18.578125 -30.609375 18.578125 -28.75 17.25 C-28.14671875 16.80140625 -27.5434375 16.3528125 -26.921875 15.890625 C-25 15 -25 15 -22.96875 15.07421875 C-20.24854088 16.3533647 -19.32111938 18.02728463 -17.75 20.5625 C-17.22921875 21.38878906 -16.7084375 22.21507813 -16.171875 23.06640625 C-15.78515625 23.70449219 -15.3984375 24.34257813 -15 25 C-14.88785156 23.69804688 -14.77570313 22.39609375 -14.66015625 21.0546875 C-13.20261696 7.48927426 -13.20261696 7.48927426 -9.90234375 3.40234375 C-6.48076346 1.13798086 -4.12892817 0 0 0 Z " fill="#E2E2E2" transform="translate(157,82)"/>
<path d="M0 0 C-0.66 0.33 -1.32 0.66 -2 1 C-2.33 2.65 -2.66 4.3 -3 6 C7.56 6 18.12 6 29 6 C29 6.33 29 6.66 29 7 C28.16678223 6.99363525 27.33356445 6.98727051 26.47509766 6.98071289 C0.21679995 6.92130498 -23.13184868 10.08594583 -46.10351562 23.86572266 C-47.72907917 24.83796368 -49.38541687 25.75842693 -51.046875 26.66796875 C-73.23565814 39.43636615 -88.5819166 61.82216355 -98 85 C-99.65 84.01 -101.3 83.02 -103 82 C-103.495 82.99 -103.495 82.99 -104 84 C-104.66 84 -105.32 84 -106 84 C-105.48174301 78.24364555 -103.18494758 73.88141757 -100.5 68.875 C-100.05003662 68.03187256 -99.60007324 67.18874512 -99.13647461 66.32006836 C-91.12564001 51.62486395 -79.49723858 37.08584861 -66 27 C-65.34 27 -64.68 27 -64 27 C-64 26.34 -64 25.68 -64 25 C-61.57816622 23.17902624 -59.1691734 21.51089575 -56.625 19.875 C-55.86348633 19.38507568 -55.10197266 18.89515137 -54.31738281 18.39038086 C-42.4309023 10.94370743 -29.56558981 5.55512009 -16 2 C-15.15824219 1.77570313 -14.31648438 1.55140625 -13.44921875 1.3203125 C-8.85961401 0.19412377 -4.72156765 -0.20091777 0 0 Z " fill="#D3D3D3" transform="translate(235,111)"/>
<path d="M0 0 C1.2065625 0.0309375 1.2065625 0.0309375 2.4375 0.0625 C3.82092249 2.31056155 4.48881535 3.57396251 4.20898438 6.23803711 C3.98533203 7.0141333 3.76167969 7.79022949 3.53125 8.58984375 C3.16132935 9.89320679 3.16132935 9.89320679 2.78393555 11.22290039 C2.50461182 12.13934326 2.22528809 13.05578613 1.9375 14 C1.66139893 14.9377124 1.38529785 15.8754248 1.10083008 16.84155273 C-0.88664094 23.38113682 -3.27489244 29.46258271 -6.36328125 35.56640625 C-7.41671419 37.75905657 -8.08761446 39.68807231 -8.5625 42.0625 C-9.2225 42.0625 -9.8825 42.0625 -10.5625 42.0625 C-10.68995605 42.64950684 -10.81741211 43.23651367 -10.94873047 43.84130859 C-11.93403759 47.40707002 -13.86596833 50.4930089 -15.6875 53.6875 C-16.08912354 54.39519531 -16.49074707 55.10289062 -16.90454102 55.83203125 C-23.61907892 67.51828069 -23.61907892 67.51828069 -27.5625 72.0625 C-28.2225 72.0625 -28.8825 72.0625 -29.5625 72.0625 C-29.8203125 72.62453125 -30.078125 73.1865625 -30.34375 73.765625 C-31.70419777 76.32954579 -33.29038962 78.51476365 -35.0625 80.8125 C-35.6709375 81.61171875 -36.279375 82.4109375 -36.90625 83.234375 C-37.4528125 83.83765625 -37.999375 84.4409375 -38.5625 85.0625 C-39.2225 85.0625 -39.8825 85.0625 -40.5625 85.0625 C-40.5625 85.7225 -40.5625 86.3825 -40.5625 87.0625 C-41.2225 87.0625 -41.8825 87.0625 -42.5625 87.0625 C-42.5625 87.7225 -42.5625 88.3825 -42.5625 89.0625 C-43.9375 90.6875 -43.9375 90.6875 -45.5625 92.0625 C-46.2225 92.0625 -46.8825 92.0625 -47.5625 92.0625 C-47.5625 92.7225 -47.5625 93.3825 -47.5625 94.0625 C-50.69930535 96.9611531 -54.16540405 99.47745886 -57.5625 102.0625 C-59.03396484 103.18591797 -59.03396484 103.18591797 -60.53515625 104.33203125 C-69.16110212 110.77536901 -69.16110212 110.77536901 -72.5625 111.0625 C-73.2225 110.4025 -73.8825 109.7425 -74.5625 109.0625 C-74.41662901 105.85854793 -73.96375729 104.46127016 -71.671875 102.18359375 C-70.50398438 101.35021484 -70.50398438 101.35021484 -69.3125 100.5 C-68.09626953 99.61441406 -68.09626953 99.61441406 -66.85546875 98.7109375 C-66.09878906 98.16695313 -65.34210938 97.62296875 -64.5625 97.0625 C-63.593125 96.258125 -62.62375 95.45375 -61.625 94.625 C-59.5625 93.0625 -59.5625 93.0625 -57.5625 93.0625 C-57.0675 91.5775 -57.0675 91.5775 -56.5625 90.0625 C-55.9025 90.0625 -55.2425 90.0625 -54.5625 90.0625 C-54.5625 89.4025 -54.5625 88.7425 -54.5625 88.0625 C-53.9025 88.0625 -53.2425 88.0625 -52.5625 88.0625 C-52.5625 87.4025 -52.5625 86.7425 -52.5625 86.0625 C-51.9025 86.0625 -51.2425 86.0625 -50.5625 86.0625 C-50.5625 85.4025 -50.5625 84.7425 -50.5625 84.0625 C-49.9025 84.0625 -49.2425 84.0625 -48.5625 84.0625 C-48.5625 83.4025 -48.5625 82.7425 -48.5625 82.0625 C-47.9025 82.0625 -47.2425 82.0625 -46.5625 82.0625 C-46.5625 81.4025 -46.5625 80.7425 -46.5625 80.0625 C-45.9025 80.0625 -45.2425 80.0625 -44.5625 80.0625 C-44.0675 78.5775 -44.0675 78.5775 -43.5625 77.0625 C-42.9025 77.0625 -42.2425 77.0625 -41.5625 77.0625 C-41.32144531 76.51335937 -41.08039063 75.96421875 -40.83203125 75.3984375 C-39.27115495 72.52642511 -37.32241863 70.217818 -35.25 67.6875 C-20.46921715 48.92410204 -10.32978643 27.49213757 -4.47265625 4.4296875 C-3.297041 0.08041563 -3.297041 0.08041563 0 0 Z " fill="#D6D6D6" transform="translate(404.5625,269.9375)"/>
<path d="M0 0 C1.2065625 0.0309375 1.2065625 0.0309375 2.4375 0.0625 C4.22697304 4.62565626 5.76958951 9.16419555 7.125 13.875 C11.47227642 27.99143692 17.34454535 40.72218122 25.57617188 53.00830078 C26.07697266 53.75837402 26.57777344 54.50844727 27.09375 55.28125 C27.77147461 56.2702832 27.77147461 56.2702832 28.46289062 57.27929688 C29.4375 59.0625 29.4375 59.0625 29.4375 62.0625 C30.0975 62.0625 30.7575 62.0625 31.4375 62.0625 C33.16041722 64.13413803 34.77960558 66.20867078 36.375 68.375 C39.60165328 72.79460208 39.60165328 72.79460208 43.25390625 76.85546875 C44.4375 78.0625 44.4375 78.0625 44.4375 80.0625 C45.0975 80.0625 45.7575 80.0625 46.4375 80.0625 C46.4375 80.7225 46.4375 81.3825 46.4375 82.0625 C47.0975 82.0625 47.7575 82.0625 48.4375 82.0625 C48.4375 82.7225 48.4375 83.3825 48.4375 84.0625 C49.0975 84.0625 49.7575 84.0625 50.4375 84.0625 C50.4375 84.7225 50.4375 85.3825 50.4375 86.0625 C51.0975 86.0625 51.7575 86.0625 52.4375 86.0625 C52.4375 86.7225 52.4375 87.3825 52.4375 88.0625 C53.0975 88.0625 53.7575 88.0625 54.4375 88.0625 C54.4375 88.7225 54.4375 89.3825 54.4375 90.0625 C54.97375 90.29066406 55.51 90.51882813 56.0625 90.75390625 C59.1724999 92.46747528 61.7550307 94.69931779 64.4375 97 C68.51176387 100.4888488 68.51176387 100.4888488 72.796875 103.7109375 C73.33828125 104.15695312 73.8796875 104.60296875 74.4375 105.0625 C74.6875 107.75 74.6875 107.75 74.4375 110.0625 C72.8125 110.8125 72.8125 110.8125 70.4375 111.0625 C68.23101394 109.8309729 66.42323877 108.59713553 64.4375 107.0625 C63.76589844 106.56363281 63.09429687 106.06476563 62.40234375 105.55078125 C38.42851451 87.41185225 20.27005148 65.17395769 7.4375 38.0625 C6.88964844 36.95777344 6.34179688 35.85304688 5.77734375 34.71484375 C2.32851248 27.60533653 0.14389384 20.75822321 -1.5625 13.0625 C-1.94644202 11.74647234 -2.34029334 10.43323573 -2.75 9.125 C-3.50998363 6.26044631 -3.82215237 4.00522688 -3.5625 1.0625 C-2.5625 0.0625 -2.5625 0.0625 0 0 Z " fill="#D5D5D5" transform="translate(95.5625,269.9375)"/>
<path d="M0 0 C0.625 1.875 0.625 1.875 1 4 C-1.72421783 6.72421783 -4.52988075 6.76263073 -8.1953125 7.2890625 C-8.90275604 7.39721283 -9.61019958 7.50536316 -10.33908081 7.61679077 C-12.59996332 7.96060414 -14.86236684 8.29292319 -17.125 8.625 C-18.65766602 8.85601616 -20.19021988 9.08777781 -21.72265625 9.3203125 C-25.48052371 9.88886855 -29.23979532 10.44712164 -33 11 C-31.85845459 10.84644043 -30.71690918 10.69288086 -29.54077148 10.53466797 C-19.63384839 9.21626333 -9.98788221 8.75803246 0 9 C0.495 10.98 0.495 10.98 1 13 C-2.29276734 14.88066052 -5.33152117 15.55656496 -9.05859375 16.18359375 C-10.25033203 16.38919922 -11.44207031 16.59480469 -12.66992188 16.80664062 C-13.91322266 17.01482422 -15.15652344 17.22300781 -16.4375 17.4375 C-24.77958997 18.84786934 -32.99205775 20.38286632 -41.17993164 22.53149414 C-44.91170315 23.1514638 -47.63263826 22.68368087 -51 21 C-51.125 18.125 -51.125 18.125 -51 15 C-50.34 14.34 -49.68 13.68 -49 13 C-49.66 12.34 -50.32 11.68 -51 11 C-51.125 8.375 -51.125 8.375 -51 6 C-46.20061797 4.23820153 -41.52853641 3.27273018 -36.5 2.5 C-35.68845459 2.37399414 -34.87690918 2.24798828 -34.04077148 2.11816406 C-27.40064861 1.12884806 -20.7452413 0.3845498 -14.0625 -0.25 C-13.12148438 -0.34216797 -12.18046875 -0.43433594 -11.2109375 -0.52929688 C-10.32792969 -0.60728516 -9.44492187 -0.68527344 -8.53515625 -0.765625 C-7.755354 -0.83555664 -6.97555176 -0.90548828 -6.17211914 -0.97753906 C-3.93507818 -1.00067133 -2.13518356 -0.64016028 0 0 Z M-45 12 C-41 13 -41 13 -41 13 Z " fill="#DDDDDD" transform="translate(276,308)"/>
<path d="M0 0 C35.58296519 -0.85686496 35.58296519 -0.85686496 51 4 C51.68368652 4.21430664 52.36737305 4.42861328 53.07177734 4.64941406 C66.13129371 8.89244445 81.55529223 14.88989378 92 24 C92 24.66 92 25.32 92 26 C93.485 26.495 93.485 26.495 95 27 C94.67 27.66 94.34 28.32 94 29 C93.34 29 92.68 29 92 29 C91.67 30.65 91.34 32.3 91 34 C89.68 33.34 88.36 32.68 87 32 C87 31.34 87 30.68 87 30 C86.31550781 29.74992187 85.63101563 29.49984375 84.92578125 29.2421875 C81.51643244 27.79469361 78.37368818 25.99840901 75.1875 24.125 C72.80392323 22.72727271 70.41090347 21.35010594 68 20 C67.08553101 19.48542236 67.08553101 19.48542236 66.15258789 18.96044922 C60.67646107 16.04012704 55.05238558 14.42474452 49.0625 12.875 C48.12470703 12.62363281 47.18691406 12.37226562 46.22070312 12.11328125 C44.35396532 11.61773306 42.48420756 11.13341837 40.61157227 10.66064453 C39.03105744 10.26082466 37.45440347 9.84458345 35.88647461 9.39794922 C28.22995762 7.3792715 20.30338034 7.54171255 12.4375 7.375 C10.93682824 7.33674154 9.4361766 7.29768549 7.93554688 7.2578125 C4.29055056 7.16267804 0.64540046 7.07834092 -3 7 C-2.67 5.35 -2.34 3.7 -2 2 C-1.34 2 -0.68 2 0 2 C0 1.34 0 0.68 0 0 Z " fill="#D4D4D4" transform="translate(235,110)"/>
<path d="M0 0 C1.65588254 0.22779337 3.30152831 0.53231439 4.9375 0.875 C6.28134766 1.14957031 6.28134766 1.14957031 7.65234375 1.4296875 C10 2 10 2 12 3 C10.72348654 8.38972349 8.91050891 13.61528859 7.1875 18.875 C6.84396484 19.95136719 6.50042969 21.02773438 6.14648438 22.13671875 C3.88364525 29.02288208 1.82561562 34.31566516 -3.5 39.375 C-9.60589471 42.20987969 -16.144674 42.03830036 -22.4375 39.75 C-23.7059375 38.88375 -23.7059375 38.88375 -25 38 C-25.9075 37.38125 -26.815 36.7625 -27.75 36.125 C-30.15830357 33.85049107 -31.04128457 32.13761414 -32 29 C-30.71283353 27.99421411 -29.42011342 26.99553202 -28.125 26 C-27.40570313 25.443125 -26.68640625 24.88625 -25.9453125 24.3125 C-24 23 -24 23 -22 23 C-21.34 24.65 -20.68 26.3 -20 28 C-17.03 28.33 -14.06 28.66 -11 29 C-7.76984629 22.99513725 -5.65527841 17.11513286 -3.8125 10.5625 C-3.30092381 8.77134864 -2.78674467 6.98093794 -2.26953125 5.19140625 C-2.04885986 4.40967041 -1.82818848 3.62793457 -1.60083008 2.82250977 C-1 1 -1 1 0 0 Z " fill="#DFDFDF" transform="translate(205,376)"/>
<path d="M0 0 C3.875 0.875 3.875 0.875 5 2 C5.12375 3.010625 5.2475 4.02125 5.375 5.0625 C6.63050732 12.97219612 10.36446124 20.4808727 13.375 27.875 C13.74882813 28.80441406 14.12265625 29.73382813 14.5078125 30.69140625 C18.18881033 39.73002079 22.2757713 48.28346331 27.75 56.375 C32.45903972 63.33950211 32.45903972 63.33950211 33 67 C33.66 67 34.32 67 35 67 C36.34032514 68.76358572 37.67256392 70.53360607 38.9765625 72.32421875 C50.22191224 87.62767047 50.22191224 87.62767047 65 99 C65 99.66 65 100.32 65 101 C65.56203125 101.25910156 66.1240625 101.51820313 66.703125 101.78515625 C69.25383939 103.13425859 71.45283987 104.69210872 73.75 106.4375 C74.54921875 107.03433594 75.3484375 107.63117188 76.171875 108.24609375 C76.77515625 108.82488281 77.3784375 109.40367187 78 110 C78 110.99 78 111.98 78 113 C76.515 113.495 76.515 113.495 75 114 C72.625 112.63671875 72.625 112.63671875 70 110.6875 C69.13375 110.05199219 68.2675 109.41648437 67.375 108.76171875 C66.59125 108.18035156 65.8075 107.59898437 65 107 C63.515 106.01 63.515 106.01 62 105 C62 104.34 62 103.68 62 103 C61.43539062 102.75121094 60.87078125 102.50242187 60.2890625 102.24609375 C51.71644489 97.5794299 44.09142905 88.58188509 38 81 C38 80.34 38 79.68 38 79 C37.34 79 36.68 79 36 79 C34.3645192 77.09587525 32.86205387 75.20199329 31.375 73.1875 C30.95476562 72.64029297 30.53453125 72.09308594 30.1015625 71.52929688 C27 67.37541853 27 67.37541853 27 64 C26.34 64 25.68 64 25 64 C12.52495012 46.73926288 2.54114027 23.9830652 -1 3 C-0.67 2.01 -0.34 1.02 0 0 Z " fill="#C2C2C2" transform="translate(81,272)"/>
<path d="M0 0 C0.66 0 1.32 0 2 0 C2.67260351 1.76858691 3.33788395 3.53996016 4 5.3125 C4.37125 6.29863281 4.7425 7.28476563 5.125 8.30078125 C6 11 6 11 6 14 C11.28 14.33 16.56 14.66 22 15 C20.29668302 20.10995095 15.36588836 22.07098629 11 25 C11.99 29.95 12.98 34.9 14 40 C10.47107553 38.58843021 7.45137797 37.22615467 4.1875 35.375 C3.00220703 34.70597656 3.00220703 34.70597656 1.79296875 34.0234375 C1.20128906 33.68570313 0.60960938 33.34796875 0 33 C-0.77085938 33.5053125 -1.54171875 34.010625 -2.3359375 34.53125 C-3.84027344 35.50578125 -3.84027344 35.50578125 -5.375 36.5 C-6.87160156 37.47453125 -6.87160156 37.47453125 -8.3984375 38.46875 C-11 40 -11 40 -13 40 C-12.86722656 39.41992188 -12.73445313 38.83984375 -12.59765625 38.2421875 C-12.33275391 37.07042969 -12.33275391 37.07042969 -12.0625 35.875 C-11.88847656 35.10929687 -11.71445313 34.34359375 -11.53515625 33.5546875 C-10.94019145 30.71449055 -10.46084848 27.86473381 -10 25 C-10.7940625 24.44570312 -11.588125 23.89140625 -12.40625 23.3203125 C-13.4271875 22.59585938 -14.448125 21.87140625 -15.5 21.125 C-16.5209375 20.40570313 -17.541875 19.68640625 -18.59375 18.9453125 C-19.78484375 17.98238281 -19.78484375 17.98238281 -21 17 C-21 16.34 -21 15.68 -21 15 C-12.585 14.505 -12.585 14.505 -4 14 C-3.67 12.02 -3.34 10.04 -3 8 C-2.12002311 5.27343949 -1.0573773 2.66642971 0 0 Z " fill="#E6E6E6" transform="translate(84,223)"/>
<path d="M0 0 C0.99 0.33 1.98 0.66 3 1 C4.67475947 4.90403795 5.75764469 8.93021538 7 13 C12.28 13.66 17.56 14.32 23 15 C23 15.66 23 16.32 23 17 C19.46564786 19.85731715 15.71729448 22.38099707 12 25 C12.99 29.95 13.98 34.9 15 40 C9.27524818 38.09174939 6.61948313 36.51080718 2 33 C0.53936857 33.78741859 -0.91843173 34.5800905 -2.375 35.375 C-3.18710937 35.81585938 -3.99921875 36.25671875 -4.8359375 36.7109375 C-7.10814302 37.9443893 -7.10814302 37.9443893 -9 40 C-9.99 40 -10.98 40 -12 40 C-11.01 35.05 -10.02 30.1 -9 25 C-10.815 23.72125 -12.63 22.4425 -14.5 21.125 C-16.37339724 19.80510649 -18.217871 18.44074715 -20 17 C-20 16.34 -20 15.68 -20 15 C-12.08 14.505 -12.08 14.505 -4 14 C-3.525625 12.4325 -3.05125 10.865 -2.5625 9.25 C-2.29566406 8.36828125 -2.02882813 7.4865625 -1.75390625 6.578125 C-1.11531506 4.39434165 -0.53224167 2.21164502 0 0 Z " fill="#E2E2E2" transform="translate(414,223)"/>
<path d="M0 0 C1.32 0 2.64 0 4 0 C4 0.66 4 1.32 4 2 C4.66 2 5.32 2 6 2 C7.97064325 4.33445431 9.81074172 6.67261368 11.625 9.125 C12.43142944 10.20793335 12.43142944 10.20793335 13.25415039 11.31274414 C18.09725422 17.92882811 22.10921956 24.78981247 26 32 C26.48082031 32.80824219 26.96164062 33.61648437 27.45703125 34.44921875 C30.4035424 39.40754718 32.30050146 44.40294498 34.0078125 49.91015625 C34.76396749 52.26495388 35.58305299 54.52805436 36.48046875 56.828125 C38.07871984 61.04256091 39.17964908 65.29923084 40.1875 69.6875 C40.36474609 70.42033203 40.54199219 71.15316406 40.72460938 71.90820312 C42.42924197 79.2071898 42.42924197 79.2071898 42 83 C41.34 83.66 40.68 84.32 40 85 C37.375 84.625 37.375 84.625 35 84 C34.79246094 83.00484375 34.58492188 82.0096875 34.37109375 80.984375 C32.55477063 72.6234099 30.32430334 64.51732515 27.5 56.4375 C27.21568115 55.61797852 26.9313623 54.79845703 26.63842773 53.95410156 C24.77992544 48.76024667 22.57259313 43.87683221 20 39 C19.27083333 37.58333333 18.54166667 36.16666667 17.8125 34.75 C17.48894531 34.12609375 17.16539062 33.5021875 16.83203125 32.859375 C15.96762 30.92763906 15.45202447 29.06378849 15 27 C14.34 27 13.68 27 13 27 C12.70867187 26.443125 12.41734375 25.88625 12.1171875 25.3125 C9.47998845 20.40299736 6.62460706 15.97778462 3.13671875 11.62890625 C2 10 2 10 2 8 C1.34 8 0.68 8 0 8 C-2 5 -2 5 -1.6875 2.875 C-1 1 -1 1 0 0 Z " fill="#D7D7D7" transform="translate(369,132)"/>
<path d="M0 0 C2.0625 0.4375 2.0625 0.4375 4 1 C-0.05983461 20.29615511 -7.12339307 37.42794139 -16 55 C-16.66 55 -17.32 55 -18 55 C-18.1546875 55.8353125 -18.1546875 55.8353125 -18.3125 56.6875 C-19.14178408 59.4769101 -20.34299056 61.6139064 -22 64 C-22.66 64 -23.32 64 -24 64 C-24.08378906 64.54140625 -24.16757812 65.0828125 -24.25390625 65.640625 C-25.25850719 68.81747823 -26.97422933 71.06603503 -28.9375 73.75 C-29.64777344 74.73484375 -30.35804688 75.7196875 -31.08984375 76.734375 C-31.72019531 77.48203125 -32.35054688 78.2296875 -33 79 C-33.66 79 -34.32 79 -35 79 C-35.24363281 79.56074219 -35.48726563 80.12148438 -35.73828125 80.69921875 C-40.12763431 88.70333314 -49.17726062 98.0745715 -57 103 C-57.66 103 -58.32 103 -59 103 C-59 103.66 -59 104.32 -59 105 C-61.23046875 106.9453125 -61.23046875 106.9453125 -64.1875 109.125 C-65.15042969 109.84945312 -66.11335938 110.57390625 -67.10546875 111.3203125 C-70.12119633 113.07032986 -71.59091336 113.3864047 -75 113 C-75 112.01 -75 111.02 -75 110 C-74.34 110 -73.68 110 -73 110 C-73 109.34 -73 108.68 -73 108 C-71.5390625 106.7109375 -71.5390625 106.7109375 -69.625 105.375 C-68.68527344 104.70597656 -68.68527344 104.70597656 -67.7265625 104.0234375 C-66 103 -66 103 -64 103 C-64 102.34 -64 101.68 -64 101 C-62.38281689 99.5671282 -60.70376628 98.20375251 -59 96.875 C-49.19634085 89.00198472 -40.34422532 79.97670004 -33.5625 69.3125 C-33.046875 68.549375 -32.53125 67.78625 -32 67 C-31.34 67 -30.68 67 -30 67 C-29.74476563 66.29488281 -29.48953125 65.58976562 -29.2265625 64.86328125 C-27.88304385 61.72697817 -26.22302596 59.05525344 -24.375 56.1875 C-14.14446228 39.87825324 -6.62879936 22.13452973 -1.7265625 3.52734375 C-1 1 -1 1 0 0 Z " fill="#BFBFBF" transform="translate(416,272)"/>
<path d="M0 0 C2.475 0.495 2.475 0.495 5 1 C5.77734375 2.59375 5.77734375 2.59375 6 5 C4.60687457 7.33491432 3.21383422 9.36196291 1.5625 11.5 C0.62648635 12.76610146 -0.3083948 14.03304088 -1.2421875 15.30078125 C-1.94553223 16.2436499 -1.94553223 16.2436499 -2.66308594 17.20556641 C-17.57296425 37.21791221 -25.42327973 59.92169013 -31 84 C-33.375 84.625 -33.375 84.625 -36 85 C-38 83 -38 83 -38.05786133 81.16992188 C-37.31428194 75.49328191 -36.17846496 70.02659224 -34.6875 64.5 C-34.35310913 63.2461853 -34.35310913 63.2461853 -34.01196289 61.96704102 C-32.67726909 57.09857743 -31.19851541 52.47946782 -28.94921875 47.9453125 C-27.89192126 45.7785053 -27.08285722 43.57467114 -26.25 41.3125 C-21.38890054 29.12206841 -13.77508951 18.47045388 -6 8 C-5.3503125 7.1234375 -4.700625 6.246875 -4.03125 5.34375 C-2.69652751 3.55572553 -1.35009734 1.77644386 0 0 Z " fill="#D5D5D5" transform="translate(127,132)"/>
<path d="M0 0 C0.79470703 -0.01224609 1.58941406 -0.02449219 2.40820312 -0.03710938 C7.07282268 -0.04868411 10.79940048 0.39975575 15.1875 2.1875 C15.1875 2.8475 15.1875 3.5075 15.1875 4.1875 C14.01574219 4.21328125 12.84398437 4.2390625 11.63671875 4.265625 C2.37905039 4.56534078 -5.22554411 5.46751911 -13.8125 9.1875 C-15.13833657 9.54950316 -16.46999943 9.8932533 -17.8125 10.1875 C-17.8125 10.8475 -17.8125 11.5075 -17.8125 12.1875 C-19.2734375 13.4765625 -19.2734375 13.4765625 -21.1875 14.8125 C-21.81398437 15.25851563 -22.44046875 15.70453125 -23.0859375 16.1640625 C-24.8125 17.1875 -24.8125 17.1875 -26.8125 17.1875 C-27.21855469 18.05568359 -27.21855469 18.05568359 -27.6328125 18.94140625 C-28.81470886 21.19170561 -30.17609608 23.08499626 -31.6875 25.125 C-39.3880583 36.65696353 -40.29622239 49.83749215 -37.8125 63.1875 C-40.8125 62.1875 -40.8125 62.1875 -42.375 59.75 C-45.44802392 52.13424508 -46.34960569 45.25364509 -44.8125 37.1875 C-44.68746094 36.50816406 -44.56242188 35.82882813 -44.43359375 35.12890625 C-42.65645039 26.91562209 -38.54420864 19.34499272 -32.8125 13.1875 C-32.1525 13.1875 -31.4925 13.1875 -30.8125 13.1875 C-30.8125 12.5275 -30.8125 11.8675 -30.8125 11.1875 C-21.98505269 3.72468223 -11.37283721 0.009091 0 0 Z " fill="#D7D7D7" transform="translate(250.8125,176.8125)"/>
<path d="M0 0 C1.32 0.66 2.64 1.32 4 2 C3.40569631 7.53445307 2.42905627 12.75050576 1 18.125 C-0.99223946 25.70417187 -2.13995168 32.75518865 -2.24609375 40.57421875 C-2.27899941 42.22721949 -2.31221155 43.88021415 -2.34570312 45.53320312 C-2.39327344 48.12048615 -2.43780507 50.70773897 -2.47680664 53.29516602 C-2.51644326 55.80508944 -2.56796515 58.31454979 -2.62109375 60.82421875 C-2.6295079 61.5992424 -2.63792206 62.37426605 -2.64659119 63.17277527 C-2.73400108 66.96065199 -2.84906818 68.77360227 -5 72 C-5.66 72 -6.32 72 -7 72 C-8.85776765 68.86501708 -9.20140476 66.62528568 -9 63 C-9.66 63 -10.32 63 -11 63 C-11.4193683 41.92620535 -10.3172763 23.23452459 -4 3 C-3.01 3 -2.02 3 -1 3 C-0.67 2.01 -0.34 1.02 0 0 Z " fill="#DEDEDE" transform="translate(132,192)"/>
<path d="M0 0 C-0.66 0.33 -1.32 0.66 -2 1 C-2.33 2.65 -2.66 4.3 -3 6 C7.56 6 18.12 6 29 6 C29 6.33 29 6.66 29 7 C28.16678223 6.99363525 27.33356445 6.98727051 26.47509766 6.98071289 C-0.79436509 6.91901727 -24.23008524 10.72353886 -48 25 C-49.11761719 25.65097656 -50.23523438 26.30195313 -51.38671875 26.97265625 C-53.61214491 28.28556457 -55.81640086 29.61911211 -58 31 C-57.31620454 27.04991941 -56.21156817 24.36542982 -54 21 C-54.66 20.67 -55.32 20.34 -56 20 C-44.50148023 11.12394965 -29.9358525 5.65215445 -16 2 C-15.15824219 1.77570313 -14.31648438 1.55140625 -13.44921875 1.3203125 C-8.85961401 0.19412377 -4.72156765 -0.20091777 0 0 Z " fill="#DBDBDB" transform="translate(235,111)"/>
<path d="M0 0 C5.69139902 1.09698167 10.74567937 2.54053077 16 5 C16 5.66 16 6.32 16 7 C16.54140625 7.06316406 17.0828125 7.12632812 17.640625 7.19140625 C20.98878197 8.33887064 23.21269749 10.56335736 25.75 12.9375 C26.25660156 13.39318359 26.76320313 13.84886719 27.28515625 14.31835938 C28.56785768 15.49906703 29.78935193 16.74551812 31 18 C31 18.66 31 19.32 31 20 C31.66 20 32.32 20 33 20 C37.32091271 25.76522894 40.09763742 32.09142011 42 39 C40 39.66666667 38 40.33333333 36 41 C36.33 41.99 36.66 42.98 37 44 C37.06802967 45.72795352 37.08495645 47.45835365 37.0625 49.1875 C37.05347656 50.08855469 37.04445313 50.98960937 37.03515625 51.91796875 C37.02355469 52.60503906 37.01195312 53.29210937 37 54 C36.67 54 36.34 54 36 54 C35.90203125 53.24976563 35.8040625 52.49953125 35.703125 51.7265625 C34.17690945 41.27988021 31.32020825 33.42694433 25 25 C25 24.34 25 23.68 25 23 C24.34 23 23.68 23 23 23 C23 22.34 23 21.68 23 21 C22.34 21 21.68 21 21 21 C21 20.34 21 19.68 21 19 C20.50371094 18.75378906 20.00742187 18.50757813 19.49609375 18.25390625 C17.41943414 17.21070166 15.35157095 16.1530847 13.28515625 15.08984375 C11.87768727 14.37223281 10.47013276 13.65478962 9.0625 12.9375 C8.00772461 12.39125977 8.00772461 12.39125977 6.93164062 11.83398438 C3.30078528 9.99303522 0.09228589 8.52054517 -4 8 C-3.01 7.67 -2.02 7.34 -1 7 C-0.67 4.69 -0.34 2.38 0 0 Z " fill="#D1D1D1" transform="translate(264,166)"/>
<path d="M0 0 C0.66 0.99 1.32 1.98 2 3 C1.34 3 0.68 3 0 3 C0.495 4.98 0.495 4.98 1 7 C1.99 7 2.98 7 4 7 C4 7.66 4 8.32 4 9 C3.34 9 2.68 9 2 9 C2 9.99 2 10.98 2 12 C2.66 11.67 3.32 11.34 4 11 C3.05699754 15.18939495 1.2808445 18.86159159 -0.625 22.6875 C-1.15589233 23.75508545 -1.15589233 23.75508545 -1.69750977 24.84423828 C-4.22180267 29.78480888 -7.05464215 34.15331352 -10.65234375 38.3984375 C-12.08393565 39.97313081 -12.08393565 39.97313081 -13 42 C-13.66 42 -14.32 42 -15 42 C-15.26167969 42.5775 -15.52335937 43.155 -15.79296875 43.75 C-18.84759401 49.44405873 -23.81566853 54.22957712 -29 58 C-29.391875 57.505 -29.78375 57.01 -30.1875 56.5 C-32.55091715 54.54406857 -34.01435003 54.75792027 -37 55 C-35.9790625 53.9790625 -35.9790625 53.9790625 -34.9375 52.9375 C-34.47601563 52.47214844 -34.01453125 52.00679688 -33.5390625 51.52734375 C-32.52852272 50.52449843 -31.50269926 49.53677825 -30.4609375 48.56640625 C-16.20420674 35.01913366 -6.96079066 18.16331314 0 0 Z " fill="#D4D4D4" transform="translate(364,283)"/>
<path d="M0 0 C3.69212428 0.11497965 4.85317794 0.84562439 7.4296875 3.5546875 C8.2604063 4.64978692 9.07475496 5.75743821 9.875 6.875 C10.52952148 7.76445312 10.52952148 7.76445312 11.19726562 8.671875 C12.48250968 10.43600969 13.74370766 12.21517711 15 14 C15.61101562 14.84820312 16.22203125 15.69640625 16.8515625 16.5703125 C28.77482427 34.14440923 41.71444187 61.16983162 41 83 C39.35 83 37.7 83 36 83 C35.93683594 82.37738281 35.87367188 81.75476563 35.80859375 81.11328125 C33.92643914 66.90796701 28.62582069 53.23902747 22.875 40.1875 C22.56288574 39.47770996 22.25077148 38.76791992 21.92919922 38.03662109 C19.94465053 33.68178288 17.64111258 29.71904481 14.95751953 25.75512695 C14 24 14 24 14 21 C13.34 21 12.68 21 12 21 C10.2734375 18.6640625 10.2734375 18.6640625 8.375 15.625 C7.74335938 14.62726563 7.11171875 13.62953125 6.4609375 12.6015625 C5 10 5 10 5 8 C4.34 8 3.68 8 3 8 C1.02 4.535 1.02 4.535 -1 1 C-0.67 0.67 -0.34 0.34 0 0 Z " fill="#C0C0C0" transform="translate(381,132)"/>
<path d="M0 0 C-0.54723683 3.37462715 -1.0549 5.08235 -3 8 C-3.66 8 -4.32 8 -5 8 C-5.226875 8.66 -5.45375 9.32 -5.6875 10 C-7.3878815 13.88658628 -9.39623084 17.63679817 -12 21 C-12.66 21 -13.32 21 -14 21 C-14.08894531 21.50917969 -14.17789063 22.01835937 -14.26953125 22.54296875 C-15.30271553 26.01822497 -17.01900358 29.11009433 -18.6875 32.3125 C-22.635642 40.03994605 -25.9296481 47.88485163 -29 56 C-29.24967529 56.61488281 -29.49935059 57.22976562 -29.7565918 57.86328125 C-31.85409916 63.14109365 -33.08930829 68.43639843 -34.1875 74 C-34.36474609 74.87011719 -34.54199219 75.74023438 -34.72460938 76.63671875 C-35.15558102 78.75663333 -35.57862591 80.87815687 -36 83 C-37.65 83 -39.3 83 -41 83 C-37.96987939 56.29334875 -27.68820161 30.12913676 -11 9 C-10.36964844 8.12214844 -9.73929688 7.24429688 -9.08984375 6.33984375 C-8.17912109 5.08880859 -8.17912109 5.08880859 -7.25 3.8125 C-6.71890625 3.07644531 -6.1878125 2.34039062 -5.640625 1.58203125 C-4 0 -4 0 0 0 Z " fill="#BABABA" transform="translate(119,132)"/>
<path d="M0 0 C0.625 1.875 0.625 1.875 1 4 C-1.70883539 6.70883539 -4.4455794 6.72173006 -8.08984375 7.21875 C-8.79017227 7.32215698 -9.49050079 7.42556396 -10.21205139 7.53210449 C-12.45280293 7.86262357 -14.69487295 8.18247264 -16.9375 8.5 C-19.88546115 8.91837946 -22.83169817 9.34690417 -25.77734375 9.78125 C-26.45554672 9.87402222 -27.13374969 9.96679443 -27.83250427 10.06237793 C-31.22599902 10.56283788 -33.08754831 11.05836554 -36 13 C-39.06640625 13.265625 -39.06640625 13.265625 -42.5625 13.25 C-44.29693359 13.25773437 -44.29693359 13.25773437 -46.06640625 13.265625 C-49 13 -49 13 -51 11 C-51.125 8.375 -51.125 8.375 -51 6 C-46.20061797 4.23820153 -41.52853641 3.27273018 -36.5 2.5 C-35.68845459 2.37399414 -34.87690918 2.24798828 -34.04077148 2.11816406 C-27.40064861 1.12884806 -20.7452413 0.3845498 -14.0625 -0.25 C-13.12148438 -0.34216797 -12.18046875 -0.43433594 -11.2109375 -0.52929688 C-10.32792969 -0.60728516 -9.44492187 -0.68527344 -8.53515625 -0.765625 C-7.755354 -0.83555664 -6.97555176 -0.90548828 -6.17211914 -0.97753906 C-3.93507818 -1.00067133 -2.13518356 -0.64016028 0 0 Z " fill="#D4D4D4" transform="translate(276,308)"/>
<path d="M0 0 C0.47566406 0.65226562 0.95132813 1.30453125 1.44140625 1.9765625 C2.82488735 4.23260827 2.82488735 4.23260827 5.33984375 4.4609375 C6.62568359 4.41839844 6.62568359 4.41839844 7.9375 4.375 C8.79214844 4.36210937 9.64679688 4.34921875 10.52734375 4.3359375 C13.09841654 3.98662903 14.72221342 3.18882389 17 2 C17.99 2 18.98 2 20 2 C19.47731534 4.76276177 18.89130413 7.3260876 18 10 C17.34 10 16.68 10 16 10 C16 10.66 16 11.32 16 12 C10.38919566 14.90930596 5.38842145 17.25832544 -1 16 C-4.11460055 14.8709573 -7.06035917 13.52425821 -10 12 C-10 11.34 -10 10.68 -10 10 C-10.66 10 -11.32 10 -12 10 C-13.76462683 6.91190305 -14 5.76687864 -14 2 C-12.4176994 1.66179834 -10.83410625 1.32964061 -9.25 1 C-8.36828125 0.814375 -7.4865625 0.62875 -6.578125 0.4375 C-4 0 -4 0 0 0 Z " fill="#D8D8D8" transform="translate(247,330)"/>
<path d="M0 0 C4.42910272 -0.04973511 8.85805397 -0.08587704 13.28735352 -0.10986328 C14.79161413 -0.11987124 16.29585553 -0.1334818 17.80004883 -0.15087891 C19.97221643 -0.17535809 22.14412504 -0.18653523 24.31640625 -0.1953125 C25.62037354 -0.20578613 26.92434082 -0.21625977 28.26782227 -0.22705078 C33.16120906 0.07064332 37.37969679 1.45989893 42 3 C41.34 4.98 40.68 6.96 40 9 C39.39953857 8.93433838 38.79907715 8.86867676 38.18041992 8.80102539 C29.56860317 7.93290834 20.95845159 7.67409758 12.3125 7.4375 C10.82095454 7.39418922 9.32941795 7.35057152 7.83789062 7.30664062 C4.22535571 7.20089527 0.61271906 7.09928034 -3 7 C-2.67 5.35 -2.34 3.7 -2 2 C-1.34 2 -0.68 2 0 2 C0 1.34 0 0.68 0 0 Z " fill="#F0F0F0" transform="translate(235,110)"/>
<path d="M0 0 C6.68441679 0.59718647 12.94719378 1.81608067 19.4375 3.5 C20.78231445 3.83837891 20.78231445 3.83837891 22.15429688 4.18359375 C28.70346102 5.85173051 28.70346102 5.85173051 31 7 C31.042721 8.66611905 31.04063832 10.33382885 31 12 C30 13 30 13 28.09375 13.01953125 C21.92958334 12.52751192 16.01355805 11.45649394 10 10.0625 C9.25814453 9.89274658 8.51628906 9.72299316 7.75195312 9.5480957 C4.3579164 8.72958432 1.93334814 7.95556543 -1 6 C-0.67 4.02 -0.34 2.04 0 0 Z " fill="#D2D2D2" transform="translate(154,194)"/>
<path d="M0 0 C0.33 0.99 0.66 1.98 1 3 C-2.66083365 7.95164782 -7.68294149 8.51022287 -13.375 9.75 C-14.30828125 9.97042969 -15.2415625 10.19085938 -16.203125 10.41796875 C-20.87653845 11.48371884 -25.17421897 12.29051525 -30 12 C-30.33 10.35 -30.66 8.7 -31 7 C-26.25761673 3.58387646 -21.09395013 2.55038181 -15.5 1.25 C-14.56285156 1.01667969 -13.62570312 0.78335938 -12.66015625 0.54296875 C-11.75136719 0.32769531 -10.84257812 0.11242187 -9.90625 -0.109375 C-9.08447266 -0.30499023 -8.26269531 -0.50060547 -7.41601562 -0.70214844 C-4.71006516 -1.03574379 -2.62924738 -0.66609161 0 0 Z " fill="#DADADA" transform="translate(347,195)"/>
<path d="M0 0 C0.66 0.268125 1.32 0.53625 2 0.8125 C2.33 2.4625 2.66 4.1125 3 5.8125 C2.34 5.8125 1.68 5.8125 1 5.8125 C1 6.4725 1 7.1325 1 7.8125 C-0.81343546 9.01005172 -2.63819665 10.19298396 -4.5078125 11.30078125 C-6.30624197 12.39167813 -8.06841752 13.54313092 -9.8046875 14.73046875 C-10.75601562 15.37628906 -11.70734375 16.02210938 -12.6875 16.6875 C-13.57824219 17.30367187 -14.46898437 17.91984375 -15.38671875 18.5546875 C-18.45877187 20.03331396 -19.80936942 19.83580134 -23 18.8125 C-23.33 17.8225 -23.66 16.8325 -24 15.8125 C-22.37660195 14.10365995 -20.70680947 12.43803283 -19 10.8125 C-18.34 10.8125 -17.68 10.8125 -17 10.8125 C-17 10.1525 -17 9.4925 -17 8.8125 C-15.02 8.1525 -13.04 7.4925 -11 6.8125 C-11 6.1525 -11 5.4925 -11 4.8125 C-7.62365257 1.9723467 -4.47602466 -0.27975154 0 0 Z " fill="#C8C8C8" transform="translate(326,164.1875)"/>
<path d="M0 0 C1.66385742 0.26683594 1.66385742 0.26683594 3.36132812 0.5390625 C4.51955078 0.73757812 5.67777344 0.93609375 6.87109375 1.140625 C8.03318359 1.32367188 9.19527344 1.50671875 10.39257812 1.6953125 C19.04232633 3.12435758 19.04232633 3.12435758 21.30859375 5.390625 C20.93359375 8.015625 20.93359375 8.015625 20.30859375 10.390625 C14.1963501 10.5459014 8.46365723 9.98942407 2.43359375 9.015625 C1.58023437 8.88929688 0.726875 8.76296875 -0.15234375 8.6328125 C-1.374375 8.43945312 -1.374375 8.43945312 -2.62109375 8.2421875 C-3.72300049 8.06937256 -3.72300049 8.06937256 -4.84716797 7.89306641 C-6.69140625 7.390625 -6.69140625 7.390625 -8.69140625 5.390625 C-8.69140625 4.070625 -8.69140625 2.750625 -8.69140625 1.390625 C-5.05883653 -1.03108815 -4.18694351 -0.67933961 0 0 Z " fill="#C7C7C7" transform="translate(325.69140625,223.609375)"/>
<path d="M0 0 C5.21578443 0.50408962 9.00107484 3.19036315 13.3125 5.9375 C14.05306641 6.39318359 14.79363281 6.84886719 15.55664062 7.31835938 C19.60757412 9.86839401 19.60757412 9.86839401 21 11 C21 11.66 21 12.32 21 13 C22.32 13.66 23.64 14.32 25 15 C24.6875 16.9375 24.6875 16.9375 24 19 C21 20 21 20 18.6875 19.06640625 C-0.07966363 8.56443242 -0.07966363 8.56443242 -1.8046875 3.7578125 C-1.86914062 3.17773438 -1.93359375 2.59765625 -2 2 C-1.34 2 -0.68 2 0 2 C0 1.34 0 0.68 0 0 Z " fill="#D2D2D2" transform="translate(173,164)"/>
<path d="M0 0 C1 1 1 1 1.0625 3.5625 C1.041875 4.366875 1.02125 5.17125 1 6 C-7.93205154 9.23074204 -17.52562808 10.37897488 -27 10 C-27.66 8.68 -28.32 7.36 -29 6 C-27 3 -27 3 -25.15576172 2.3840332 C-24.42115723 2.27406006 -23.68655273 2.16408691 -22.9296875 2.05078125 C-22.115 1.92509766 -21.3003125 1.79941406 -20.4609375 1.66992188 C-19.60757813 1.55197266 -18.75421875 1.43402344 -17.875 1.3125 C-17.04484375 1.18294922 -16.2146875 1.05339844 -15.359375 0.91992188 C-10.19058735 0.15432558 -5.22461857 -0.21917334 0 0 Z " fill="#C9C9C9" transform="translate(182,224)"/>
<path d="M0 0 C0.25652344 0.53496094 0.51304687 1.06992188 0.77734375 1.62109375 C2.81788227 5.59134283 5.1607576 9.38680436 7.44140625 13.22265625 C9 16 9 16 10 19 C10.66 19 11.32 19 12 19 C12 19.66 12 20.32 12 21 C12.66 21 13.32 21 14 21 C14 21.66 14 22.32 14 23 C11.83125748 22.49396008 10.00032373 22.00016187 8 21 C8 23.31 8 25.62 8 28 C6.62437146 26.71034824 5.29233607 25.37310707 4 24 C4 23.34 4 22.68 4 22 C3.34 22 2.68 22 2 22 C0 19 0 19 0 16 C-0.66 16 -1.32 16 -2 16 C-3.03033882 13.87959258 -4.04902854 11.75352092 -5.0625 9.625 C-5.63097656 8.44164062 -6.19945312 7.25828125 -6.78515625 6.0390625 C-7.18605469 5.03617188 -7.58695313 4.03328125 -8 3 C-7.67 2.34 -7.34 1.68 -7 1 C-4.50638429 2.20381448 -2.31856917 3.45428722 0 5 C0 3.35 0 1.7 0 0 Z " fill="#D1D1D1" transform="translate(203,238)"/>
<path d="M0 0 C0.33 1.65 0.66 3.3 1 5 C-1.22855378 6.43845758 -3.45781857 7.87579219 -5.6875 9.3125 C-6.62625977 9.91868164 -6.62625977 9.91868164 -7.58398438 10.53710938 C-9.3856117 11.69731964 -11.19262444 12.84877419 -13 14 C-14.36125 14.88171875 -14.36125 14.88171875 -15.75 15.78125 C-18.62026595 17.33597739 -20.78674624 17.22418049 -24 17 C-24.33 15.35 -24.66 13.7 -25 12 C-19.76226206 8.60281296 -14.50999895 5.22266802 -9.125 2.0625 C-8.44695312 1.66160156 -7.76890625 1.26070312 -7.0703125 0.84765625 C-4.59698635 -0.16500747 -2.64774161 -0.15222208 0 0 Z " fill="#CACACA" transform="translate(191,250)"/>
<path d="M0 0 C5.32732024 -0.49613211 8.64790434 1.08147711 13.0625 3.8125 C13.66126953 4.16892578 14.26003906 4.52535156 14.87695312 4.89257812 C16.59191145 5.91629366 18.29621182 6.95779974 20 8 C20.96035156 8.52722656 21.92070312 9.05445313 22.91015625 9.59765625 C23.59980469 10.06042969 24.28945313 10.52320313 25 11 C25.375 13.625 25.375 13.625 25 16 C24 17 24 17 21.7578125 17.24609375 C18.41336562 16.94765161 16.67651047 15.88305344 13.875 14.0625 C11.18517424 12.3333263 9.04442937 11.01480979 6 10 C6 9.34 6 8.68 6 8 C5.401875 7.896875 4.80375 7.79375 4.1875 7.6875 C1.64333489 6.88790525 0.5342548 6.18025682 -1 4 C-0.6875 1.8125 -0.6875 1.8125 0 0 Z " fill="#D4D4D4" transform="translate(309,250)"/>
<path d="M0 0 C4.875 0.875 4.875 0.875 6 2 C6.09962237 3.82985622 6.13080452 5.66352878 6.1328125 7.49609375 C6.13410156 8.61177734 6.13539063 9.72746094 6.13671875 10.87695312 C6.13285156 12.05193359 6.12898437 13.22691406 6.125 14.4375 C6.12886719 15.60861328 6.13273438 16.77972656 6.13671875 17.98632812 C6.13542969 19.10330078 6.13414062 20.22027344 6.1328125 21.37109375 C6.13168457 22.40161865 6.13055664 23.43214355 6.12939453 24.49389648 C6 27 6 27 5 29 C3.33388095 29.042721 1.66617115 29.04063832 0 29 C-1.76988265 27.23011735 -1.13029068 24.68034582 -1.1328125 22.28515625 C-1.13410156 21.12435547 -1.13539063 19.96355469 -1.13671875 18.76757812 C-1.13091797 16.93356445 -1.13091797 16.93356445 -1.125 15.0625 C-1.13080078 13.23428711 -1.13080078 13.23428711 -1.13671875 11.36914062 C-1.13542969 10.20705078 -1.13414062 9.04496094 -1.1328125 7.84765625 C-1.13168457 6.77523682 -1.13055664 5.70281738 -1.12939453 4.59790039 C-1 2 -1 2 0 0 Z " fill="#F6F6F6" transform="translate(248,128)"/>
<path d="M0 0 C1.65 0.33 3.3 0.66 5 1 C5.53067617 6.61124807 3.86000749 9.95561721 1.1875 14.6875 C0.83107422 15.35072266 0.47464844 16.01394531 0.10742188 16.69726562 C-3.4182091 23.12102996 -3.4182091 23.12102996 -6 25 C-8.6875 24.6875 -8.6875 24.6875 -11 24 C-10.70154446 17.13552267 -7.64180403 12.68521029 -4 7 C-3.19842862 5.63075041 -2.40524679 4.25651224 -1.625 2.875 C-1.08875 1.92625 -0.5525 0.9775 0 0 Z " fill="#CFCFCF" transform="translate(290,139)"/>
<path d="M0 0 C5.69139902 1.09698167 10.74567937 2.54053077 16 5 C16 5.66 16 6.32 16 7 C16.556875 7.061875 17.11375 7.12375 17.6875 7.1875 C20.94987173 8.33373872 22.68667874 10.49390197 25 13 C23.02 13 21.04 13 19 13 C18.34 14.32 17.68 15.64 17 17 C15.90300781 16.43410156 14.80601562 15.86820313 13.67578125 15.28515625 C12.22151727 14.54395074 10.76708107 13.80308305 9.3125 13.0625 C8.59126953 12.68931641 7.87003906 12.31613281 7.12695312 11.93164062 C3.43494258 10.06034761 0.16306904 8.51730444 -4 8 C-3.01 7.67 -2.02 7.34 -1 7 C-0.67 4.69 -0.34 2.38 0 0 Z " fill="#D0D0D0" transform="translate(264,166)"/>
<path d="M0 0 C3.29127979 1.4520352 4.40699667 3.86963691 6.125 6.9375 C6.125 7.9275 6.125 8.9175 6.125 9.9375 C6.785 9.9375 7.445 9.9375 8.125 9.9375 C10.83891278 14.71107872 12.69061146 18.28138537 12.125 23.9375 C10.475 24.2675 8.825 24.5975 7.125 24.9375 C3.93076359 21.2061796 1.55488901 17.31598951 -0.625 12.9375 C-0.94082031 12.33421875 -1.25664062 11.7309375 -1.58203125 11.109375 C-3.35710854 7.57458905 -4.26514198 4.89894163 -3.875 0.9375 C-1.875 -0.0625 -1.875 -0.0625 0 0 Z " fill="#D5D5D5" transform="translate(208.875,139.0625)"/>
<path d="M0 0 C1.32 0 2.64 0 4 0 C4 0.66 4 1.32 4 2 C4.66 2 5.32 2 6 2 C7.31274414 3.40527344 7.31274414 3.40527344 8.78515625 5.359375 C9.31560547 6.06320313 9.84605469 6.76703125 10.39257812 7.4921875 C10.94365234 8.23726562 11.49472656 8.98234375 12.0625 9.75 C12.61744141 10.47960937 13.17238281 11.20921875 13.74414062 11.9609375 C14.27330078 12.66992188 14.80246094 13.37890625 15.34765625 14.109375 C15.83242432 14.75874023 16.31719238 15.40810547 16.81665039 16.07714844 C18.03737536 18.06073207 18.56701265 19.72404894 19 22 C18.05125 21.979375 17.1025 21.95875 16.125 21.9375 C13.09333717 21.77448174 13.09333717 21.77448174 11 23 C9.49428254 20.87885041 7.99531321 18.75346385 6.5 16.625 C6.07074219 16.02171875 5.64148438 15.4184375 5.19921875 14.796875 C2 10.2265625 2 10.2265625 2 8 C1.34 8 0.68 8 0 8 C-2 5 -2 5 -1.6875 2.875 C-1 1 -1 1 0 0 Z " fill="#D6D6D6" transform="translate(369,132)"/>
<path d="M0 0 C3.875 0.875 3.875 0.875 5 2 C5.12375 3.010625 5.2475 4.02125 5.375 5.0625 C6.19356365 10.21945097 7.97431992 14.64360487 10.05078125 19.4140625 C12.45289957 25.05685681 13.60457681 29.8709406 14 36 C12.68 36 11.36 36 10 36 C6.51689047 27.88471389 3.46315735 19.75553159 1.0625 11.25 C0.83925049 10.4760791 0.61600098 9.7021582 0.38598633 8.90478516 C-1.12394681 3.37184042 -1.12394681 3.37184042 0 0 Z " fill="#C4C4C4" transform="translate(81,272)"/>
<path d="M0 0 C0.66 0.33 1.32 0.66 2 1 C2 1.66 2 2.32 2 3 C2.99 2.67 3.98 2.34 5 2 C7.1875 2.4375 7.1875 2.4375 9 3 C8.125 7.875 8.125 7.875 7 9 C4.14408442 9.40713885 1.30448614 9.75605255 -1.5625 10.0625 C-2.34947266 10.15337891 -3.13644531 10.24425781 -3.94726562 10.33789062 C-8.99681968 10.89155154 -13.92077579 11.08727189 -19 11 C-17.92598892 8.08482708 -17.22189824 6.22189824 -15 4 C-11.9609375 3.8046875 -11.9609375 3.8046875 -8.375 3.875 C-6.59222656 3.90207031 -6.59222656 3.90207031 -4.7734375 3.9296875 C-3.85820312 3.95289063 -2.94296875 3.97609375 -2 4 C-2 3.01 -2 2.02 -2 1 C-1.34 0.67 -0.68 0.34 0 0 Z " fill="#ECECEC" transform="translate(267,297)"/>
<path d="M0 0 C0.99 0 1.98 0 3 0 C2.88437394 1.39664108 2.757008 2.79231199 2.625 4.1875 C2.55539063 4.96480469 2.48578125 5.74210938 2.4140625 6.54296875 C2 9 2 9 1.09375 11.1875 C-0.50013206 15.28605387 -1.25869666 19.50986006 -2.125 23.8125 C-2.30675781 24.69615234 -2.48851563 25.57980469 -2.67578125 26.49023438 C-3.12132836 28.65934531 -3.56259977 30.82923423 -4 33 C-5.65 33 -7.3 33 -9 33 C-8.3779145 27.36949141 -7.43138853 21.94726841 -6.125 16.4375 C-5.96386719 15.72142578 -5.80273438 15.00535156 -5.63671875 14.26757812 C-2.98896403 2.98896403 -2.98896403 2.98896403 0 0 Z " fill="#BFBFBF" transform="translate(87,182)"/>
<path d="M0 0 C7.22114047 0.36717663 7.22114047 0.36717663 11 3.4375 C13 6 13 6 13 8 C13.66 8 14.32 8 15 8 C15 8.66 15 9.32 15 10 C14.34 10 13.68 10 13 10 C12.67 11.98 12.34 13.96 12 16 C11.01 16 10.02 16 9 16 C8.34 14.35 7.68 12.7 7 11 C6.34 11 5.68 11 5 11 C5 10.34 5 9.68 5 9 C4.34 9 3.68 9 3 9 C3 8.34 3 7.68 3 7 C2.01 6.67 1.02 6.34 0 6 C-0.75 4.0625 -0.75 4.0625 -1 2 C-0.67 1.34 -0.34 0.68 0 0 Z " fill="#DEDEDE" transform="translate(282,178)"/>
<path d="M0 0 C2.24609375 0.05078125 2.24609375 0.05078125 5 1 C6.8924713 3.03827033 8.4616455 4.94333457 10.0625 7.1875 C10.48337891 7.75275391 10.90425781 8.31800781 11.33789062 8.90039062 C14.01321811 12.52141527 16.52811294 16.23793633 19 20 C18.67 20.66 18.34 21.32 18 22 C17.01 21.67 16.02 21.34 15 21 C14.67 21.99 14.34 22.98 14 24 C14 23.01 14 22.02 14 21 C13.34 21 12.68 21 12 21 C10.2734375 18.6640625 10.2734375 18.6640625 8.375 15.625 C7.74335938 14.62726563 7.11171875 13.62953125 6.4609375 12.6015625 C5 10 5 10 5 8 C4.34 8 3.68 8 3 8 C1.02 4.535 1.02 4.535 -1 1 C-0.67 0.67 -0.34 0.34 0 0 Z " fill="#CDCDCD" transform="translate(381,132)"/>
<path d="M0 0 C1.32 0 2.64 0 4 0 C4.22786458 1.953125 4.45572917 3.90625 4.68359375 5.859375 C4.94407499 7.97731561 4.94407499 7.97731561 5.5625 9.875 C6.15639681 12.75964166 5.84857857 15.32564124 5.5625 18.25 C5.46066406 19.32765625 5.35882813 20.4053125 5.25390625 21.515625 C5.17011719 22.33546875 5.08632813 23.1553125 5 24 C3.0625 24.5625 3.0625 24.5625 1 25 C-1.00156193 22.99843807 -0.46107815 19.18525917 -0.625 16.4375 C-0.67003662 15.71111328 -0.71507324 14.98472656 -0.76147461 14.23632812 C-1.02489826 9.35121601 -0.90466375 4.82487335 0 0 Z " fill="#E4E4E4" transform="translate(251,265)"/>
<path d="M0 0 C2.8203125 -0.29296875 2.8203125 -0.29296875 6.125 -0.1875 C7.76855469 -0.14689453 7.76855469 -0.14689453 9.4453125 -0.10546875 C10.28835937 -0.07066406 11.13140625 -0.03585938 12 0 C12.33 1.65 12.66 3.3 13 5 C11.35 5 9.7 5 8 5 C8 5.66 8 6.32 8 7 C5.36 7 2.72 7 0 7 C-0.66 5.68 -1.32 4.36 -2 3 C-1.34 2.01 -0.68 1.02 0 0 Z " fill="#D6D6D6" transform="translate(155,227)"/>
<path d="M0 0 C0 0.66 0 1.32 0 2 C1.65 2 3.3 2 5 2 C4.67 2.99 4.34 3.98 4 5 C3.34 5 2.68 5 2 5 C2 5.66 2 6.32 2 7 C0.37536158 7.05395478 -1.24978541 7.09277195 -2.875 7.125 C-3.77992188 7.14820313 -4.68484375 7.17140625 -5.6171875 7.1953125 C-8 7 -8 7 -10 5 C-10 3.68 -10 2.36 -10 1 C-6.1496895 -1.56687367 -4.41430237 -0.83288724 0 0 Z " fill="#D3D3D3" transform="translate(327,224)"/>
<path d="M0 0 C0.33 0.99 0.66 1.98 1 3 C-0.78174788 5.30142435 -2.16304165 6.80034391 -5.046875 7.48828125 C-7.0246611 7.72323102 -9.01271872 7.86751458 -11 8 C-11.33 6.68 -11.66 5.36 -12 4 C-11.34 4 -10.68 4 -10 4 C-10 3.34 -10 2.68 -10 2 C-10.99 1.67 -11.98 1.34 -13 1 C-4.57142857 -1.42857143 -4.57142857 -1.42857143 0 0 Z " fill="#CBCBCB" transform="translate(347,195)"/>
<path d="M0 0 C0.66 0.33 1.32 0.66 2 1 C0.515 3.475 0.515 3.475 -1 6 C-0.01 6.99 0.98 7.98 2 9 C0.20909242 10.1470194 -1.58274997 11.29257935 -3.375 12.4375 C-4.87160156 13.39462891 -4.87160156 13.39462891 -6.3984375 14.37109375 C-9 16 -9 16 -11 17 C-10.43454163 13.04179141 -9.19097652 10.3340947 -7 7 C-7.66 6.67 -8.32 6.34 -9 6 C-6.03 4.02 -3.06 2.04 0 0 Z " fill="#C6C6C6" transform="translate(188,125)"/>
<path d="M0 0 C1.32 0.33 2.64 0.66 4 1 C3.01 5.62 2.02 10.24 1 15 C0.34 15 -0.32 15 -1 15 C-1 15.66 -1 16.32 -1 17 C-1.99 17 -2.98 17 -4 17 C-4.37484035 11.12750125 -3.25153948 6.43635958 -1 1 C-0.67 0.67 -0.34 0.34 0 0 Z " fill="#DADADA" transform="translate(416,272)"/>
<path d="M0 0 C0.66 0.33 1.32 0.66 2 1 C1.85848172 3.0836309 1.71162064 5.16689938 1.5625 7.25 C1.48128906 8.41015625 1.40007812 9.5703125 1.31640625 10.765625 C1.06752213 13.30977376 0.71885058 15.55953248 0 18 C-1.65 18 -3.3 18 -5 18 C-3.699101 6.07509254 -3.699101 6.07509254 -2 1 C-1.34 0.67 -0.68 0.34 0 0 Z " fill="#E4E4E4" transform="translate(83,197)"/>
<path d="M0 0 C-0.99 0.495 -0.99 0.495 -2 1 C-2.33 2.65 -2.66 4.3 -3 6 C7.56 6 18.12 6 29 6 C29 6.33 29 6.66 29 7 C28.06728271 7.02505615 27.13456543 7.0501123 26.17358398 7.07592773 C22.68650084 7.17152068 19.19955812 7.27072459 15.71264648 7.37231445 C14.20845501 7.41541126 12.70422252 7.45710207 11.19995117 7.49731445 C9.02770674 7.55563457 6.85566398 7.61914484 4.68359375 7.68359375 C3.37962646 7.72025146 2.07565918 7.75690918 0.73217773 7.79467773 C-2.91751656 7.99546225 -6.39467558 8.42665752 -10 9 C-9.34 8.67 -8.68 8.34 -8 8 C-8 6.68 -8 5.36 -8 4 C-7.01 4 -6.02 4 -5 4 C-5 3.34 -5 2.68 -5 2 C-6.98 2 -8.96 2 -11 2 C-7.36576791 -0.32590854 -4.22911669 -0.16265833 0 0 Z " fill="#8C8C8C" transform="translate(235,111)"/>
<path d="M0 0 C-3.93421053 10.28947368 -3.93421053 10.28947368 -8 13 C-10.07156343 10.7627115 -10.98508829 9.59646834 -11.0625 6.5 C-8.9460692 1.52016282 -5.16876618 0 0 0 Z " fill="#E2E2E2" transform="translate(181,132)"/>
<path d="M0 0 C1.32 0.33 2.64 0.66 4 1 C3.56682609 6.4146739 2.51017262 9.80729382 -1 14 C-3.75 15.375 -3.75 15.375 -6 16 C-5.52412884 9.97229862 -2.80277043 5.23321711 0 0 Z " fill="#CDCDCD" transform="translate(404,305)"/>
<path d="M0 0 C2 0 4 0 6 0 C5.690625 0.763125 5.38125 1.52625 5.0625 2.3125 C4.32106407 4.18789677 3.63771783 6.08684652 3 8 C2.34 8 1.68 8 1 8 C0.87625 8.61875 0.7525 9.2375 0.625 9.875 C0 12 0 12 -2 14 C-2 13.34 -2 12.68 -2 12 C-3.65 12.33 -5.3 12.66 -7 13 C-6.57847656 12.22914063 -6.15695312 11.45828125 -5.72265625 10.6640625 C-5.17480469 9.66117187 -4.62695312 8.65828125 -4.0625 7.625 C-3.51722656 6.62726563 -2.97195313 5.62953125 -2.41015625 4.6015625 C-1.5850241 3.07929654 -0.77435609 1.54871217 0 0 Z " fill="#C3C3C3" transform="translate(397,319)"/>
<path d="M0 0 C-0.54723683 3.37462715 -1.0549 5.08235 -3 8 C-3.66 8 -4.32 8 -5 8 C-5.66 9.65 -6.32 11.3 -7 13 C-7.99 12.67 -8.98 12.34 -10 12 C-10.99 12.66 -11.98 13.32 -13 14 C-12.39586552 10.14075286 -10.57823989 7.78388884 -8.1875 4.75 C-7.50042969 3.85796875 -6.81335938 2.9659375 -6.10546875 2.046875 C-4 0 -4 0 0 0 Z " fill="#C9C9C9" transform="translate(119,132)"/>
<path d="M0 0 C3 1 3 1 4.125 3 C5.28132277 6.9645352 5.66010538 10.89443077 6 15 C4.68 15 3.36 15 2 15 C-0.41889075 10.06143138 -1.44999897 6.62498715 -1 1 C-0.67 0.67 -0.34 0.34 0 0 Z " fill="#CFCFCF" transform="translate(89,293)"/>
<path d="M0 0 C0.33 1.65 0.66 3.3 1 5 C-1.31 6.32 -3.62 7.64 -6 9 C-6 8.34 -6 7.68 -6 7 C-7.32 7.33 -8.64 7.66 -10 8 C-9.75 5.125 -9.75 5.125 -9 2 C-6.14489381 -0.24329772 -3.54012923 -0.19667385 0 0 Z " fill="#D3D3D3" transform="translate(191,250)"/>
<path d="M0 0 C1.32 0 2.64 0 4 0 C4 0.66 4 1.32 4 2 C4.66 2 5.32 2 6 2 C6.66 3.32 7.32 4.64 8 6 C7.34 6 6.68 6 6 6 C6 8.64 6 11.28 6 14 C4.62437146 12.71034824 3.29233607 11.37310707 2 10 C2 9.34 2 8.68 2 8 C1.34 8 0.68 8 0 8 C-2 5 -2 5 -1.6875 2.875 C-1 1 -1 1 0 0 Z " fill="#BDBDBD" transform="translate(369,132)"/>
<path d="M0 0 C4.875 0.875 4.875 0.875 6 2 C6.08737645 3.85369611 6.10698153 5.71067541 6.09765625 7.56640625 C6.09282227 9.2534668 6.09282227 9.2534668 6.08789062 10.97460938 C6.07951172 12.15861328 6.07113281 13.34261719 6.0625 14.5625 C6.05798828 15.75037109 6.05347656 16.93824219 6.04882812 18.16210938 C6.03699675 21.10812226 6.02051287 24.05403681 6 27 C5.67 27 5.34 27 5 27 C4.67 19.08 4.34 11.16 4 3 C3.01 3.33 2.02 3.66 1 4 C0.67 11.92 0.34 19.84 0 28 C-0.33 28 -0.66 28 -1 28 C-1.02891949 23.70834738 -1.04677118 19.41671964 -1.0625 15.125 C-1.07087891 13.90167969 -1.07925781 12.67835938 -1.08789062 11.41796875 C-1.09111328 10.25136719 -1.09433594 9.08476562 -1.09765625 7.8828125 C-1.10289307 6.80402832 -1.10812988 5.72524414 -1.11352539 4.61376953 C-1 2 -1 2 0 0 Z " fill="#797979" transform="translate(248,128)"/>
<path d="M0 0 C4.62 0 9.24 0 14 0 C13.67 12.87 13.34 25.74 13 39 C12.67 39 12.34 39 12 39 C11.97494385 37.98574951 11.9498877 36.97149902 11.92407227 35.92651367 C11.82990355 32.16368973 11.72970595 28.40104631 11.62768555 24.63842773 C11.58437251 23.00988996 11.54269482 21.38130784 11.50268555 19.75268555 C11.44489497 17.41181065 11.38122602 15.07115824 11.31640625 12.73046875 C11.29969376 12.00224411 11.28298126 11.27401947 11.26576233 10.52372742 C11.17532762 7.43833061 10.98276007 4.94828022 10 2 C7.03 1.67 4.06 1.34 1 1 C0.67 1.99 0.34 2.98 0 4 C0 2.68 0 1.36 0 0 Z " fill="#A2A2A2" transform="translate(253,382)"/>
<path d="M0 0 C2.64 1.32 5.28 2.64 8 4 C8.042721 5.66611905 8.04063832 7.33382885 8 9 C7 10 7 10 4.75 10.25 C1.48053884 9.95277626 -0.32008236 8.83765781 -3 7 C-2.2575 6.38125 -2.2575 6.38125 -1.5 5.75 C0.43386092 3.87797662 0.43386092 3.87797662 0 0 Z " fill="#C1C1C1" transform="translate(326,257)"/>
<path d="M0 0 C1.65 0.33 3.3 0.66 5 1 C5.8125 2.6875 5.8125 2.6875 6 5 C3.5625 7.75 3.5625 7.75 1 10 C-0.65 9.01 -2.3 8.02 -4 7 C-2.79618552 4.50638429 -1.54571278 2.31856917 0 0 Z " fill="#C5C5C5" transform="translate(127,132)"/>
<path d="M0 0 C0.33 0 0.66 0 1 0 C3.29612756 9.41002278 3.29612756 9.41002278 3 14 C1.35 14 -0.3 14 -2 14 C-3.3271261 10.0186217 -3.06915913 6.14954773 -3 2 C-2.01 2.33 -1.02 2.66 0 3 C0 2.01 0 1.02 0 0 Z " fill="#CBCBCB" transform="translate(419,201)"/>
<path d="M0 0 C1.48819457 0.9019361 2.96532813 1.82214129 4.4375 2.75 C5.67306641 3.51570313 5.67306641 3.51570313 6.93359375 4.296875 C9.21744593 6.1792182 9.65514457 7.1157546 10 10 C9.01 10.33 8.02 10.66 7 11 C4.73828125 9.78515625 4.73828125 9.78515625 2.3125 8.0625 C1.50425781 7.49660156 0.69601563 6.93070312 -0.13671875 6.34765625 C-0.75160156 5.90292969 -1.36648437 5.45820313 -2 5 C-1.34 3.35 -0.68 1.7 0 0 Z " fill="#A9A9A9" transform="translate(149,375)"/>
<path d="M0 0 C1.32 0 2.64 0 4 0 C4.144375 1.2375 4.28875 2.475 4.4375 3.75 C4.78688502 6.56504499 5.20379366 9.2701497 6 12 C4.68 11.67 3.36 11.34 2 11 C1.67 11.66 1.34 12.32 1 13 C0.34 13 -0.32 13 -1 13 C-0.67 8.71 -0.34 4.42 0 0 Z " fill="#F5F5F5" transform="translate(251,265)"/>
<path d="M0 0 C2.87525669 -0.05425013 5.74947646 -0.09379277 8.625 -0.125 C9.43324219 -0.14175781 10.24148437 -0.15851563 11.07421875 -0.17578125 C15.80093815 -0.21420986 19.55387702 0.17262906 24 2 C24 2.66 24 3.32 24 4 C19.71 4 15.42 4 11 4 C11 3.01 11 2.02 11 1 C7.37 1 3.74 1 0 1 C0 0.67 0 0.34 0 0 Z " fill="#B2B2B2" transform="translate(242,177)"/>
<path d="M0 0 C2.21399303 3.79541663 3.00980198 7.75629421 4 12 C3.34 12 2.68 12 2 12 C1.67 13.65 1.34 15.3 1 17 C0.31379969 15.67661368 -0.34786461 14.34050052 -1 13 C-1.391875 12.195625 -1.78375 11.39125 -2.1875 10.5625 C-3.12362322 7.61011137 -2.84054408 5.94190428 -2 3 C-1.34 3 -0.68 3 0 3 C0 2.01 0 1.02 0 0 Z " fill="#C4C4C4" transform="translate(87,282)"/>
<path d="M0 0 C3.79062273 4.82442893 5.28418033 7.74803275 5 14 C3.35 14.33 1.7 14.66 0 15 C-0.66 14.01 -1.32 13.02 -2 12 C-1.00522247 9.66443537 -0.00484883 7.33124929 1 5 C0.80486248 2.16926919 0.80486248 2.16926919 0 0 Z " fill="#B7B7B7" transform="translate(216,149)"/>
<path d="M0 0 C0.99 0.33 1.98 0.66 3 1 C1.05706522 8.92119565 1.05706522 8.92119565 -2 11 C-2.99 11 -3.98 11 -5 11 C-5.36541918 6.73677629 -4.49759276 4.45820536 -2 1 C-1.34 0.67 -0.68 0.34 0 0 Z " fill="#CFCFCF" transform="translate(100,155)"/>
<path d="M0 0 C0.66 0 1.32 0 2 0 C3.1875 2.625 3.1875 2.625 4 6 C2.625 9.375 2.625 9.375 1 12 C-2 10 -2 10 -2.51171875 7.8359375 C-2.56972656 7.02382812 -2.62773437 6.21171875 -2.6875 5.375 C-2.75324219 4.55773437 -2.81898438 3.74046875 -2.88671875 2.8984375 C-2.92410156 2.27195313 -2.96148437 1.64546875 -3 1 C-2.01 1.495 -2.01 1.495 -1 2 C-0.67 1.34 -0.34 0.68 0 0 Z " fill="#E4E4E4" transform="translate(214,149)"/>
<path d="M0 0 C1.77706209 2.66559313 2.87548273 5.0280615 4 8 C1.525 9.485 1.525 9.485 -1 11 C-2.5625 9.8125 -2.5625 9.8125 -4 8 C-3.84946418 4.98928361 -3.41319987 3.47931185 -1.4375 1.1875 C-0.963125 0.795625 -0.48875 0.40375 0 0 Z " fill="#DADADA" transform="translate(169,138)"/>
<path d="M0 0 C2.12161334 2.12161334 2.92986249 3.7733159 4.125 6.5 C4.47820312 7.2940625 4.83140625 8.088125 5.1953125 8.90625 C6 11 6 11 6 13 C4.68 13 3.36 13 2 13 C1.67 13.66 1.34 14.32 1 15 C0.01 12.36 -0.98 9.72 -2 7 C-1.34 6.67 -0.68 6.34 0 6 C0 4.02 0 2.04 0 0 Z " fill="#B0B0B0" transform="translate(94,302)"/>
<path d="M0 0 C2.125 0.375 2.125 0.375 4 1 C4 1.66 4 2.32 4 3 C5.98 3.66 7.96 4.32 10 5 C10 5.33 10 5.66 10 6 C6.37 6.33 2.74 6.66 -1 7 C-1.33 5.35 -1.66 3.7 -2 2 C-1.34 1.34 -0.68 0.68 0 0 Z " fill="#C8C8C8" transform="translate(318,200)"/>
<path d="M0 0 C2.97 0.33 5.94 0.66 9 1 C7.35 2.65 5.7 4.3 4 6 C4.33 6.66 4.66 7.32 5 8 C3.35 7.67 1.7 7.34 0 7 C-1.125 2.25 -1.125 2.25 0 0 Z " fill="#999999" transform="translate(154,194)"/>
<path d="M0 0 C2.5 1.1875 2.5 1.1875 5 3 C5.3125 5.6875 5.3125 5.6875 5 8 C3.25 8.6875 3.25 8.6875 1 9 C-1.25 7.5625 -1.25 7.5625 -3 6 C-2.34 5.67 -1.68 5.34 -1 5 C-0.34444881 2.47266765 -0.34444881 2.47266765 0 0 Z " fill="#BBBBBB" transform="translate(165,372)"/>
<path d="M0 0 C1.32 0.33 2.64 0.66 4 1 C3.40895235 5.84659077 2.02055843 9.60748167 0 14 C-0.144375 13.401875 -0.28875 12.80375 -0.4375 12.1875 C-0.8872439 10.43849596 -1.42892341 8.71322977 -2 7 C-2 3.89448334 -1.4606285 2.64738916 0 0 Z " fill="#AFAFAF" transform="translate(94,164)"/>
<path d="M0 0 C1.66611905 -0.042721 3.33382885 -0.04063832 5 0 C6 1 6 1 6.0625 3.5625 C6.041875 4.366875 6.02125 5.17125 6 6 C4.1875 6.625 4.1875 6.625 2 7 C1.01 6.34 0.02 5.68 -1 5 C-0.67 3.35 -0.34 1.7 0 0 Z " fill="#B3B3B3" transform="translate(269,326)"/>
<path d="M0 0 C1.32 0 2.64 0 4 0 C3.125 4.875 3.125 4.875 2 6 C-0.67058851 6.14115161 -3.32432238 6.04247107 -6 6 C-5 3 -5 3 -2 1 C-1.34 1.33 -0.68 1.66 0 2 C0 1.34 0 0.68 0 0 Z " fill="#D3D3D3" transform="translate(272,300)"/>
<path d="M0 0 C0 3.69418201 -1.28179295 5.77836178 -3 9 C-5.09749995 6.64031256 -5.96905704 5.45383006 -6.1875 2.25 C-6.125625 1.5075 -6.06375 0.765 -6 0 C-3.50907189 -1.24546405 -2.58919267 -0.7767578 0 0 Z " fill="#B8B8B8" transform="translate(211,140)"/>
<path d="M0 0 C1.5 1.0625 1.5 1.0625 3 3 C3.1875 6.6875 3.1875 6.6875 3 10 C1.68 9.67 0.36 9.34 -1 9 C-1.625 5.625 -1.625 5.625 -2 2 C-1.34 1.34 -0.68 0.68 0 0 Z " fill="#D9D9D9" transform="translate(416,194)"/>
<path d="M0 0 C0.33 0 0.66 0 1 0 C1.33 5.28 1.66 10.56 2 16 C-3.625 13.75 -3.625 13.75 -6 11 C-4.35 10.67 -2.7 10.34 -1 10 C-0.67 6.7 -0.34 3.4 0 0 Z " fill="#ADADAD" transform="translate(352,120)"/>
<path d="M0 0 C0.66 0 1.32 0 2 0 C0.49650623 3.66786393 -1.63728792 5.68910393 -4.625 8.25 C-5.44226563 8.95640625 -6.25953125 9.6628125 -7.1015625 10.390625 C-8.04128906 11.18726563 -8.04128906 11.18726563 -9 12 C-9.99 11.67 -10.98 11.34 -12 11 C-10.8803014 9.99406757 -9.7540588 8.9954151 -8.625 8 C-7.99851562 7.443125 -7.37203125 6.88625 -6.7265625 6.3125 C-5 5 -5 5 -3 5 C-2.67 4.01 -2.34 3.02 -2 2 C-1.34 2 -0.68 2 0 2 C0 1.34 0 0.68 0 0 Z " fill="#A9A9A9" transform="translate(350,358)"/>
<path d="M0 0 C3.63 0 7.26 0 11 0 C11 0.66 11 1.32 11 2 C9.25 3.2890625 9.25 3.2890625 7 4.625 C6.2575 5.07101563 5.515 5.51703125 4.75 5.9765625 C4.1725 6.31429687 3.595 6.65203125 3 7 C3.33 5.02 3.66 3.04 4 1 C2.68 0.67 1.36 0.34 0 0 Z " fill="#B9B9B9" transform="translate(426,238)"/>
<path d="M0 0 C0.33 0.66 0.66 1.32 1 2 C1.99 2 2.98 2 4 2 C4.33 1.34 4.66 0.68 5 0 C4.34 2.97 3.68 5.94 3 9 C2.34 8.34 1.68 7.68 1 7 C0.01 7.33 -0.98 7.66 -2 8 C-1.125 2.25 -1.125 2.25 0 0 Z " fill="#B0B0B0" transform="translate(411,287)"/>
<path d="M0 0 C0.33 0.66 0.66 1.32 1 2 C0.34 2 -0.32 2 -1 2 C-1.12375 2.61875 -1.2475 3.2375 -1.375 3.875 C-2 6 -2 6 -4 8 C-4 7.34 -4 6.68 -4 6 C-5.65 6.33 -7.3 6.66 -9 7 C-7.875 4.0625 -7.875 4.0625 -6 1 C-2.8125 0.125 -2.8125 0.125 0 0 Z " fill="#9E9E9E" transform="translate(399,325)"/>
<path d="M0 0 C0.33 0.66 0.66 1.32 1 2 C1.66 2 2.32 2 3 2 C3.66 1.34 4.32 0.68 5 0 C4.67 2.64 4.34 5.28 4 8 C2.35 8 0.7 8 -1 8 C-0.67 5.36 -0.34 2.72 0 0 Z " fill="#B5B5B5" transform="translate(79,207)"/>
<path d="M0 0 C3.08089673 2.77280706 4.68775452 5.06326356 6 9 C4.68 8.67 3.36 8.34 2 8 C1.67 8.99 1.34 9.98 1 11 C1 10.01 1 9.02 1 8 C0.34 8 -0.32 8 -1 8 C-1.33 7.01 -1.66 6.02 -2 5 C-1.34 4.67 -0.68 4.34 0 4 C0 2.68 0 1.36 0 0 Z " fill="#A0A0A0" transform="translate(394,145)"/>
<path d="M0 0 C1.32 0.33 2.64 0.66 4 1 C3.34 4.3 2.68 7.6 2 11 C0 7 0 7 0 5 C-0.66 5.66 -1.32 6.32 -2 7 C-1.125 1.125 -1.125 1.125 0 0 Z " fill="#A4A4A4" transform="translate(416,272)"/>
<path d="M0 0 C2.4375 0.1875 2.4375 0.1875 5 1 C6.3125 3.0625 6.3125 3.0625 7 5 C5.68 5.99 4.36 6.98 3 8 C1.02 4.535 1.02 4.535 -1 1 C-0.67 0.67 -0.34 0.34 0 0 Z " fill="#ADADAD" transform="translate(381,132)"/>
<path d="M0 0 C1.32 0 2.64 0 4 0 C4.33 2.31 4.66 4.62 5 7 C3.35 6.67 1.7 6.34 0 6 C0 4.02 0 2.04 0 0 Z " fill="#CECECE" transform="translate(110,336)"/>
<path d="M0 0 C0.125 2.375 0.125 2.375 0 5 C-0.66 5.66 -1.32 6.32 -2 7 C-4.625 6.625 -4.625 6.625 -7 6 C-6.8125 4.125 -6.8125 4.125 -6 2 C-2 0 -2 0 0 0 Z " fill="#ADADAD" transform="translate(411,210)"/>
<path d="M0 0 C0.33 0.66 0.66 1.32 1 2 C0.67 2.99 0.34 3.98 0 5 C-0.66 5 -1.32 5 -2 5 C-2 5.66 -2 6.32 -2 7 C-4.3125 9.1875 -4.3125 9.1875 -7 11 C-7.99 10.67 -8.98 10.34 -10 10 C-6.7 6.7 -3.4 3.4 0 0 Z " fill="#AFAFAF" transform="translate(107,93)"/>
<path d="M0 0 C4.62 0 9.24 0 14 0 C14 1.65 14 3.3 14 5 C13.01 5 12.02 5 11 5 C10.67 4.01 10.34 3.02 10 2 C7.03 1.67 4.06 1.34 1 1 C0.67 1.99 0.34 2.98 0 4 C0 2.68 0 1.36 0 0 Z " fill="#808080" transform="translate(253,382)"/>
<path d="M0 0 C1.9375 0.1875 1.9375 0.1875 4 1 C5.25 3.0625 5.25 3.0625 6 5 C5.01 5 4.02 5 3 5 C3.33 6.32 3.66 7.64 4 9 C1.24338912 6.51015791 -0.60746455 4.79450934 -1 1 C-0.67 0.67 -0.34 0.34 0 0 Z " fill="#C2C2C2" transform="translate(386,137)"/>
<path d="M0 0 C3 0 3 0 5 1 C4.75 2.875 4.75 2.875 4 5 C1.9375 6.25 1.9375 6.25 0 7 C-1.125 2.25 -1.125 2.25 0 0 Z " fill="#C8C8C8" transform="translate(382,342)"/>
<path d="M0 0 C1.32 0.66 2.64 1.32 4 2 C3.67 3.65 3.34 5.3 3 7 C1.68 6.67 0.36 6.34 -1 6 C-1.042721 4.33388095 -1.04063832 2.66617115 -1 1 C-0.67 0.67 -0.34 0.34 0 0 Z " fill="#DFDFDF" transform="translate(410,179)"/>
<path d="M0 0 C0.99 0.33 1.98 0.66 3 1 C2.67 1.66 2.34 2.32 2 3 C1.01 3.33 0.02 3.66 -1 4 C-1.639375 4.66 -2.27875 5.32 -2.9375 6 C-5.05674715 8.05502754 -6.13747914 8.59106845 -9 9 C-3.29268293 1.86585366 -3.29268293 1.86585366 0 0 Z " fill="#A7A7A7" transform="translate(382,388)"/>
<path d="M0 0 C1.65 0.33 3.3 0.66 5 1 C4.25 5.75 4.25 5.75 2 8 C2 7.34 2 6.68 2 6 C1.01 5.67 0.02 5.34 -1 5 C-0.67 3.35 -0.34 1.7 0 0 Z " fill="#B4B4B4" transform="translate(406,300)"/>
<path d="M0 0 C2.5 1.375 2.5 1.375 5 3 C5 3.66 5 4.32 5 5 C6.134375 5.12375 7.26875 5.2475 8.4375 5.375 C9.613125 5.58125 10.78875 5.7875 12 6 C12.33 6.66 12.66 7.32 13 8 C7.06 6.515 7.06 6.515 1 5 C0.67 3.35 0.34 1.7 0 0 Z " fill="#9F9F9F" transform="translate(279,97)"/>
<path d="M0 0 C1.32 1.65 2.64 3.3 4 5 C3.01 6.485 3.01 6.485 2 8 C1.67 8.66 1.34 9.32 1 10 C-0.32 8.02 -1.64 6.04 -3 4 C-2.01 4 -1.02 4 0 4 C0 2.68 0 1.36 0 0 Z " fill="#AAAAAA" transform="translate(115,339)"/>
<path d="M0 0 C2.475 0.495 2.475 0.495 5 1 C4.25 5.75 4.25 5.75 2 8 C0.23537317 4.91190305 0 3.76687864 0 0 Z " fill="#CFCFCF" transform="translate(396,153)"/>
<path d="M0 0 C0.33 1.32 0.66 2.64 1 4 C1.99 4 2.98 4 4 4 C3.34 7.3 2.68 10.6 2 14 C1.33333333 12 0.66666667 10 0 8 C-0.33 8 -0.66 8 -1 8 C-0.67 5.36 -0.34 2.72 0 0 Z " fill="#999999" transform="translate(83,190)"/>
<path d="M0 0 C1.74627478 2.61941217 2.38722388 4.03824877 3 7 C2.01 7 1.02 7 0 7 C-0.66 7.66 -1.32 8.32 -2 9 C-2.66 7.02 -3.32 5.04 -4 3 C-3.01 3 -2.02 3 -1 3 C-0.67 2.01 -0.34 1.02 0 0 Z " fill="#989898" transform="translate(410,173)"/>
<path d="M0 0 C1.32 0 2.64 0 4 0 C3.50168276 3.68754757 2.89932357 5.60490662 0 8 C-0.66 6.02 -1.32 4.04 -2 2 C-1.34 1.34 -0.68 0.68 0 0 Z " fill="#AEAEAE" transform="translate(115,132)"/>
<path d="M0 0 C3 3.75 3 3.75 3 6 C2.34 6 1.68 6 1 6 C0.67 6.66 0.34 7.32 0 8 C0 7.34 0 6.68 0 6 C-1.32 5.67 -2.64 5.34 -4 5 C-2.68 3.35 -1.36 1.7 0 0 Z " fill="#ABABAB" transform="translate(380,345)"/>
<path d="M0 0 C1.98 0.99 3.96 1.98 6 3 C3.82575883 5.50037734 2.26954202 6.43628586 -1 7 C-0.67 4.69 -0.34 2.38 0 0 Z " fill="#969696" transform="translate(72,256)"/>
<path d="M0 0 C0 3.60800902 -0.37635632 6.75271264 -2 10 C-5 6.375 -5 6.375 -5 3 C-2.5 1.3125 -2.5 1.3125 0 0 Z " fill="#A2A2A2" transform="translate(130,99)"/>
<path d="M0 0 C5.75 0.875 5.75 0.875 8 2 C8 2.66 8 3.32 8 4 C5.69 4 3.38 4 1 4 C0.67 2.68 0.34 1.36 0 0 Z " fill="#CFCFCF" transform="translate(138,369)"/>
<path d="M0 0 C2.31 0.33 4.62 0.66 7 1 C7 1.99 7 2.98 7 4 C6.01 4.33 5.02 4.66 4 5 C1.8125 3.6875 1.8125 3.6875 0 2 C0 1.34 0 0.68 0 0 Z " fill="#C5C5C5" transform="translate(152,381)"/>
<path d="M0 0 C2.3431213 0.25561323 4.67843403 0.59270772 7 1 C7.33 1.66 7.66 2.32 8 3 C7.01 3 6.02 3 5 3 C4.67 4.32 4.34 5.64 4 7 C3.67 5.68 3.34 4.36 3 3 C2.34 3 1.68 3 1 3 C0.67 2.01 0.34 1.02 0 0 Z " fill="#B0B0B0" transform="translate(105,333)"/>
<path d="M0 0 C0.66 0.99 1.32 1.98 2 3 C1.67 3.66 1.34 4.32 1 5 C0.67 5 0.34 5 0 5 C-0.33 6.65 -0.66 8.3 -1 10 C-2.85776765 6.86501708 -3.20140476 4.62528568 -3 1 C-2.01 0.67 -1.02 0.34 0 0 Z " fill="#B0B0B0" transform="translate(89,289)"/>
<path d="M0 0 C0.66 0 1.32 0 2 0 C4.09230769 4.43076923 4.09230769 4.43076923 3.625 7.3125 C3.41875 7.869375 3.2125 8.42625 3 9 C2.67 8.01 2.34 7.02 2 6 C0.68 6.33 -0.64 6.66 -2 7 C-1.125 2.25 -1.125 2.25 0 0 Z " fill="#959595" transform="translate(84,223)"/>
<path d="M0 0 C0.99 0.33 1.98 0.66 3 1 C2.67 2.65 2.34 4.3 2 6 C0.68 6 -0.64 6 -2 6 C-2 4.68 -2 3.36 -2 2 C-1.34 2 -0.68 2 0 2 C0 1.34 0 0.68 0 0 Z " fill="#DEDEDE" transform="translate(392,330)"/>
<path d="M0 0 C2.74277578 3.19990508 4.6302836 6.00499382 6 10 C3.525 9.01 3.525 9.01 1 8 C0.67 5.36 0.34 2.72 0 0 Z " fill="#ADADAD" transform="translate(142,299)"/>
<path d="M0 0 C1.32 0 2.64 0 4 0 C4.33 2.31 4.66 4.62 5 7 C4.01 6.67 3.02 6.34 2 6 C0.8125 2.9375 0.8125 2.9375 0 0 Z " fill="#A2A2A2" transform="translate(208,233)"/>
<path d="M0 0 C2 1.3125 2 1.3125 4 3 C4 3.99 4 4.98 4 6 C2.02 6.99 2.02 6.99 0 8 C-0.38063221 5.6739143 -0.71269945 3.33944736 -1 1 C-0.67 0.67 -0.34 0.34 0 0 Z " fill="#D7D7D7" transform="translate(403,162)"/>
<path d="M0 0 C0.33 0 0.66 0 1 0 C1 2.97 1 5.94 1 9 C1.66 9 2.32 9 3 9 C3 9.66 3 10.32 3 11 C3.66 11.33 4.32 11.66 5 12 C5 12.66 5 13.32 5 14 C1.125 12.25 1.125 12.25 0 10 C-0.06996014 8.29297265 -0.08440154 6.58331997 -0.0625 4.875 C-0.05347656 3.96492188 -0.04445313 3.05484375 -0.03515625 2.1171875 C-0.02355469 1.41851562 -0.01195312 0.71984375 0 0 Z " fill="#797979" transform="translate(341,117)"/>
<path d="M0 0 C-0.54226981 3.79588866 -2.20127563 5.47211993 -5 8 C-5.36625971 3.48279689 -5.36625971 3.48279689 -3.625 1.1875 C-2 0 -2 0 0 0 Z " fill="#CCCCCC" transform="translate(380,351)"/>
<path d="M0 0 C0 1.65 0 3.3 0 5 C-1.65 5 -3.3 5 -5 5 C-4.625 3.0625 -4.625 3.0625 -4 1 C-2 0 -2 0 0 0 Z " fill="#9F9F9F" transform="translate(422,210)"/>
<path d="M0 0 C1.625 1.6875 1.625 1.6875 3 4 C2.1875 6.75 2.1875 6.75 1 9 C0.34 9 -0.32 9 -1 9 C-0.67 6.03 -0.34 3.06 0 0 Z " fill="#979797" transform="translate(264,251)"/>
<path d="M0 0 C0.99 0.66 1.98 1.32 3 2 C2.6875 3.9375 2.6875 3.9375 2 6 C1.01 6.33 0.02 6.66 -1 7 C-1.66 6.34 -2.32 5.68 -3 5 C-2.01 4.67 -1.02 4.34 0 4 C0 2.68 0 1.36 0 0 Z " fill="#BEBEBE" transform="translate(195,177)"/>
<path d="M0 0 C1.65 0.33 3.3 0.66 5 1 C5 2.98 5 4.96 5 7 C4.34 5.68 3.68 4.36 3 3 C1.68 3.33 0.36 3.66 -1 4 C-0.67 2.68 -0.34 1.36 0 0 Z " fill="#9A9A9A" transform="translate(290,139)"/>
<path d="M0 0 C1.65 0 3.3 0 5 0 C5 0.66 5 1.32 5 2 C4.34 2.66 3.68 3.32 3 4 C2.67 4.66 2.34 5.32 2 6 C0.68 5.34 -0.64 4.68 -2 4 C-1.34 3.34 -0.68 2.68 0 2 C0 1.34 0 0.68 0 0 Z " fill="#F8F8F8" transform="translate(225,113)"/>
<path d="M0 0 C3.63 0 7.26 0 11 0 C10.67 0.99 10.34 1.98 10 3 C9.01 3.33 8.02 3.66 7 4 C7 3.01 7 2.02 7 1 C4.69 1 2.38 1 0 1 C0 0.67 0 0.34 0 0 Z " fill="#ABABAB" transform="translate(95,238)"/>
<path d="M0 0 C1.20628008 2.33214148 2.1654738 4.49642139 3 7 C3.99 7 4.98 7 6 7 C5.67 7.66 5.34 8.32 5 9 C4.01 8.67 3.02 8.34 2 8 C2 7.34 2 6.68 2 6 C1.01 6 0.02 6 -1 6 C-0.67 4.02 -0.34 2.04 0 0 Z " fill="#8B8B8B" transform="translate(320,110)"/>
<path d="M0 0 C0.66 0.99 1.32 1.98 2 3 C-2.10457614 5.98514628 -4.97745369 6.2954439 -10 6 C-10 5.67 -10 5.34 -10 5 C-6.97265625 4.36523438 -6.97265625 4.36523438 -3.9453125 3.73046875 C-1.62953451 3.07691162 -1.62953451 3.07691162 0 0 Z " fill="#7E7E7E" transform="translate(207,93)"/>
<path d="M0 0 C0.33 0 0.66 0 1 0 C1 1.98 1 3.96 1 6 C-1.31 6.33 -3.62 6.66 -6 7 C-4.68 6.67 -3.36 6.34 -2 6 C-1.855625 5.38125 -1.71125 4.7625 -1.5625 4.125 C-1 2 -1 2 0 0 Z " fill="#9A9A9A" transform="translate(294,415)"/>
<path d="M0 0 C0.99 0.33 1.98 0.66 3 1 C3.33 2.65 3.66 4.3 4 6 C2.35 6 0.7 6 -1 6 C-0.67 4.02 -0.34 2.04 0 0 Z " fill="#8B8B8B" transform="translate(414,223)"/>
<path d="M0 0 C0.66 0.33 1.32 0.66 2 1 C2 2.65 2 4.3 2 6 C0.02 6.99 0.02 6.99 -2 8 C-1.34 5.36 -0.68 2.72 0 0 Z " fill="#F9F9F9" transform="translate(85,188)"/>
<path d="M0 0 C0.66 0.33 1.32 0.66 2 1 C0.38405168 3.04119788 -1.2856382 5.04072937 -3 7 C-3.66 7 -4.32 7 -5 7 C-4.1875 5.0625 -4.1875 5.0625 -3 3 C-2.01 2.67 -1.02 2.34 0 2 C0 1.34 0 0.68 0 0 Z " fill="#909090" transform="translate(395,375)"/>
<path d="M0 0 C0.66 0.99 1.32 1.98 2 3 C1.34 3 0.68 3 0 3 C0.33 4.65 0.66 6.3 1 8 C-0.32 8.33 -1.64 8.66 -3 9 C-2.01 6.03 -1.02 3.06 0 0 Z " fill="#9B9B9B" transform="translate(364,283)"/>
<path d="M0 0 C0.33 0 0.66 0 1 0 C1.75 3.1875 1.75 3.1875 2 7 C0.0625 9.9375 0.0625 9.9375 -2 12 C-1.44687265 7.97007218 -0.8441938 3.97977076 0 0 Z " fill="#A1A1A1" transform="translate(367,271)"/>
<path d="M0 0 C0.33 0.99 0.66 1.98 1 3 C-0.65 3.66 -2.3 4.32 -4 5 C-4 3.68 -4 2.36 -4 1 C-2 0 -2 0 0 0 Z " fill="#CFCFCF" transform="translate(157,195)"/>
<path d="M0 0 C-3.96 1.98 -3.96 1.98 -8 4 C-7.67 2.68 -7.34 1.36 -7 0 C-2.25 -1.125 -2.25 -1.125 0 0 Z " fill="#999999" transform="translate(160,67)"/>
</svg>
